<?xml version="1.0" encoding="UTF-8" standalone="no"?>
<svg
   xmlns:dc="http://purl.org/dc/elements/1.1/"
   xmlns:cc="http://creativecommons.org/ns#"
   xmlns:rdf="http://www.w3.org/1999/02/22-rdf-syntax-ns#"
   xmlns:svg="http://www.w3.org/2000/svg"
   xmlns="http://www.w3.org/2000/svg"
   xmlns:sodipodi="http://sodipodi.sourceforge.net/DTD/sodipodi-0.dtd"
   xmlns:inkscape="http://www.inkscape.org/namespaces/inkscape"
   width="24"
   version="1.1"
   viewBox="0 0 24 18"
   enable-background="new 0 0 64 64"
   id="svg6"
   sodipodi:docname="filter-btn.svg"
   height="18"
   inkscape:version="0.92.1 r15371">
  <metadata
     id="metadata12">
    <rdf:RDF>
      <cc:Work
         rdf:about="">
        <dc:format>image/svg+xml</dc:format>
        <dc:type
           rdf:resource="http://purl.org/dc/dcmitype/StillImage" />
        <dc:title></dc:title>
      </cc:Work>
    </rdf:RDF>
  </metadata>
  <defs
     id="defs10" />
  <sodipodi:namedview
     pagecolor="#ffffff"
     bordercolor="#666666"
     borderopacity="1"
     objecttolerance="10"
     gridtolerance="10"
     guidetolerance="10"
     inkscape:pageopacity="0"
     inkscape:pageshadow="2"
     inkscape:window-width="640"
     inkscape:window-height="480"
     id="namedview8"
     showgrid="false"
     fit-margin-top="0"
     fit-margin-left="0"
     fit-margin-right="0"
     fit-margin-bottom="0"
     inkscape:zoom="3.6875"
     inkscape:cx="28"
     inkscape:cy="-7"
     inkscape:window-x="578"
     inkscape:window-y="106"
     inkscape:window-maximized="0"
     inkscape:current-layer="svg6" />
  <g
     id="g4"
     transform="translate(-4,-7)">
    <path
       d="M 23.9,10 C 23.5,8.3 21.9,7 20,7 18.1,7 16.6,8.3 16.1,10 H 4 v 2 h 12.1 c 0.4,1.7 2,3 3.9,3 1.9,0 3.4,-1.3 3.9,-3 H 28 V 10 Z M 22,11 c 0,0.4 -0.1,0.7 -0.3,1 -0.3,0.6 -1,1 -1.7,1 -0.7,0 -1.4,-0.4 -1.7,-1 -0.2,-0.3 -0.3,-0.6 -0.3,-1 0,-0.4 0.1,-0.7 0.3,-1 0.3,-0.6 1,-1 1.7,-1 0.7,0 1.4,0.4 1.7,1 0.2,0.3 0.3,0.6 0.3,1 z M 8.1,22 c 0.4,1.7 2,3 3.9,3 1.9,0 3.4,-1.3 3.9,-3 H 28 V 20 H 15.9 c -0.4,-1.7 -2,-3 -3.9,-3 -1.9,0 -3.4,1.3 -3.9,3 H 4 v 2 z M 10,21 c 0,-0.4 0.1,-0.7 0.3,-1 0.3,-0.6 1,-1 1.7,-1 0.7,0 1.4,0.4 1.7,1 0.2,0.3 0.3,0.6 0.3,1 0,0.4 -0.1,0.7 -0.3,1 -0.3,0.6 -1,1 -1.7,1 -0.7,0 -1.4,-0.4 -1.7,-1 C 10.1,21.7 10,21.4 10,21 Z"
       id="path2"
       inkscape:connector-curvature="0" />
  </g>
</svg>
