<?xml version="1.0" encoding="utf-8"?>
<!-- Generator: Adobe Illustrator 17.0.0, SVG Export Plug-In . SVG Version: 6.00 Build 0)  -->
<!DOCTYPE svg PUBLIC "-//W3C//DTD SVG 1.1//EN" "http://www.w3.org/Graphics/SVG/1.1/DTD/svg11.dtd">
<svg version="1.1" id="Layer_1" xmlns="http://www.w3.org/2000/svg" xmlns:xlink="http://www.w3.org/1999/xlink" x="0px" y="0px"
	 width="210px" height="89px" viewBox="0 0 210 89" enable-background="new 0 0 210 89" xml:space="preserve">
<g id="icomoon-ignore">
</g>
<g>
	<path fill="#299E30" d="M87.096,35.761c0-3.943,2.323-6.507,6.487-6.507c1.866,0,2.979,0.354,3.768,0.726l-0.556,1.449
		c-1.005-0.319-1.742-0.548-3.176-0.548c-2.549-0.017-4.549,1.363-4.549,4.704c0,3.411,2.072,4.897,4.89,4.897
		c1.202,0,2.117-0.176,2.96-0.442l0.448,1.485c-0.951,0.355-1.956,0.62-3.714,0.62C89.329,42.144,87.096,39.597,87.096,35.761"/>
	<path fill="#299E30" d="M105.807,37.174c0-1.538-0.664-2.722-2.441-2.722c-1.131,0-2.028,0.389-2.907,0.831
		c-0.018,0.319-0.036,0.778-0.036,1.096c0,2.882,0.878,4.226,2.673,4.226C105.214,40.605,105.807,38.836,105.807,37.174
		 M98.611,36.539c0-1.98,0.377-5.092,1.507-6.135c0.987-0.919,3.625-1.538,6.694-2.104l0.305,1.661
		c-2.728,0.46-5.151,0.884-5.743,1.45c-0.52,0.494-0.754,1.627-0.861,2.475c0.826-0.442,1.956-0.866,3.337-0.866
		c2.351,0,3.84,1.15,3.84,4.084c0,3.447-2.028,4.986-4.737,4.986C100.262,42.09,98.611,40.428,98.611,36.539"/>
	<path fill="#299E30" d="M115.62,36.255c0-1.715-0.628-2.828-2.064-2.828c-1.291,0-2.261,0.937-2.387,2.828H115.62z M109.231,37.282
		c0-3.819,1.975-5.251,4.432-5.251c2.745,0,3.894,1.715,3.894,4.862v0.654h-6.442c0.018,2.545,1.489,3.059,3.212,3.059
		c0.933,0,1.723-0.141,2.693-0.424l0.322,1.432c-0.861,0.319-2.028,0.531-3.302,0.531C111.116,42.144,109.231,41.011,109.231,37.282
		"/>
	<path fill="#299E30" d="M126.121,36.945c0-1.75-0.628-3.325-2.512-3.325c-1.022,0-1.794,0.461-2.296,0.726v6.117
		c0.233,0.036,1.005,0.177,1.668,0.177C125.224,40.64,126.121,39.101,126.121,36.945 M119.447,32.277h1.866v0.76
		c0.843-0.583,1.615-0.99,2.817-0.99c2.315,0,3.894,1.591,3.894,4.809c0,3.943-2.369,5.269-5.006,5.269
		c-0.61,0-1.274-0.088-1.705-0.141v3.836h-1.866C119.447,45.819,119.447,32.277,119.447,32.277z"/>
	<path fill="#299E30" d="M136.84,37.174c0-1.538-0.664-2.722-2.44-2.722c-1.131,0-2.028,0.389-2.907,0.831
		c-0.017,0.319-0.035,0.778-0.035,1.096c0,2.882,0.878,4.226,2.673,4.226C136.248,40.605,136.84,38.836,136.84,37.174
		 M129.644,36.539c0-1.98,0.377-5.092,1.507-6.135c0.987-0.919,3.625-1.538,6.694-2.104l0.305,1.661
		c-2.728,0.46-5.151,0.884-5.743,1.45c-0.52,0.494-0.754,1.627-0.861,2.475c0.825-0.442,1.956-0.866,3.337-0.866
		c2.351,0,3.84,1.15,3.84,4.084c0,3.447-2.028,4.986-4.738,4.986C131.294,42.09,129.644,40.428,129.644,36.539"/>
	<path fill="#299E30" d="M145.959,39.756v-2.227l-2.082,0.089c-1.345,0.036-2.116,0.601-2.116,1.591
		c0,0.971,0.717,1.414,1.668,1.414C144.308,40.623,145.26,40.198,145.959,39.756 M139.931,39.331c0-2.44,2.189-2.934,3.893-2.952
		l2.135-0.036V35.3c0-1.326-0.68-1.68-2.117-1.68c-1.04,0-1.901,0.177-2.745,0.461l-0.394-1.397
		c0.915-0.371,2.009-0.654,3.445-0.654c2.35,0,3.643,0.813,3.643,2.776v5.038c0,0.602,0.52,0.726,1.022,0.743l-0.149,1.415
		c-0.124,0.017-0.245,0.036-0.372,0.036c-1.005,0-1.992-0.301-2.17-1.166c-0.611,0.459-1.616,1.219-3.176,1.219
		C141.134,42.09,139.931,41.117,139.931,39.331"/>
	<polygon fill="#299E30" points="150.416,32.277 152.3,32.277 152.3,36.362 156.911,36.362 156.911,32.277 158.795,32.277 
		158.795,41.931 156.911,41.931 156.911,37.829 152.3,37.829 152.3,41.931 150.416,41.931 	"/>
	<path fill="#299E30" d="M165.849,40.268l-2.787-3.288l3.899-4.703h2.116l-3.989,4.561l1.943,2.122
		c0.863,0.972,1.652,1.538,2.441,1.75l-0.324,1.379C168.235,42.037,167.138,41.825,165.849,40.268 M161.105,32.277h1.884v9.653
		h-1.884V32.277z"/>
	<path fill="#F59624" d="M97.789,53.357c0-2.776-1.39-4.88-4.351-4.88c-3.087,0-4.404,2.104-4.404,4.844
		c0,2.67,1.264,4.95,4.279,4.95C96.525,58.273,97.789,56.132,97.789,53.357 M87.096,53.34c0-3.925,2.431-6.4,6.451-6.4
		c4.234,0,6.198,2.758,6.198,6.436c0,3.872-2.287,6.453-6.486,6.453C89.167,59.828,87.096,57.211,87.096,53.34"/>
	<polygon fill="#F59624" points="101.854,49.963 103.738,49.963 103.738,54.046 108.349,54.046 108.349,49.963 110.234,49.963 
		110.234,59.616 108.349,59.616 108.349,55.514 103.738,55.514 103.738,59.616 101.854,59.616 	"/>
	<path fill="#F59624" d="M111.423,58.361c0.664-0.248,1.454-0.636,1.884-1.415c0.538-0.991,0.879-3.66,0.987-6.983h6.299v9.653
		h-1.866v-8.204h-2.781c-0.27,3.359-0.611,5.41-1.257,6.596c-0.556,0.954-1.453,1.555-2.71,1.91L111.423,58.361z"/>
	<path fill="#F59624" d="M128.386,57.441v-2.228l-2.082,0.089c-1.345,0.035-2.117,0.6-2.117,1.591c0,0.971,0.719,1.414,1.669,1.414
		C126.734,58.308,127.685,57.883,128.386,57.441 M122.357,57.017c0-2.44,2.189-2.935,3.893-2.952l2.136-0.036v-1.042
		c0-1.326-0.682-1.68-2.117-1.68c-1.041,0-1.902,0.176-2.746,0.46l-0.394-1.396c0.915-0.372,2.009-0.654,3.445-0.654
		c2.35,0,3.643,0.813,3.643,2.775v5.039c0,0.601,0.52,0.726,1.022,0.743l-0.148,1.415c-0.126,0.017-0.247,0.035-0.372,0.035
		c-1.005,0-1.992-0.3-2.171-1.166c-0.611,0.459-1.616,1.22-3.176,1.22C123.559,59.775,122.357,58.803,122.357,57.017"/>
	<path fill="#F59624" d="M134.372,46.675l0.807-0.885c0.682,0.796,1.418,1.061,2.117,1.061c0.718,0,1.436-0.265,2.137-1.061
		l0.789,0.885c-0.628,1.008-1.705,1.626-2.926,1.626C136.094,48.301,134.999,47.682,134.372,46.675 M132.917,49.963h1.885v5.905
		l-0.055,1.291l0.843-1.308l4.181-5.887h1.884v9.653h-1.884v-5.87l0.053-1.326l-0.843,1.343l-4.181,5.853h-1.885L132.917,49.963
		L132.917,49.963z"/>
	<polygon fill="#F59624" points="144.138,49.963 146.022,49.963 146.022,54.046 150.634,54.046 150.634,49.963 152.517,49.963 
		152.517,59.616 150.634,59.616 150.634,55.514 146.022,55.514 146.022,59.616 144.138,59.616 	"/>
	<path fill="#299E30" d="M52.124,37.235l17.116-9.698c-0.715-0.413-1.459-0.782-2.23-1.101L52.124,34.87l-6.629-3.756
		c-0.473,0.512-0.916,1.051-1.33,1.61L52.124,37.235z M72.843,30.225c-0.53-0.504-1.09-0.977-1.675-1.416l-19.044,10.79l-9.09-5.151
		c-0.343,0.592-0.655,1.205-0.934,1.838l10.024,5.677L72.843,30.225z M52.124,44.328l-10.756-6.095
		c-0.21,0.676-0.383,1.366-0.516,2.073l11.272,6.387l23.419-13.271c-0.387-0.574-0.802-1.128-1.248-1.659L52.124,44.328z
		 M78.689,43.767c0,10.379-8.542,18.797-19.08,18.797c-10.537,0-19.081-8.418-19.081-18.797c0-0.424,0.017-0.841,0.045-1.256
		l11.553,6.548l24.47-13.869C77.933,37.762,78.689,40.677,78.689,43.767"/>
</g>
</svg>
