<?xml version="1.0" encoding="utf-8"?>
<!-- Generated by IcoMoon.io -->
<!DOCTYPE svg PUBLIC "-//W3C//DTD SVG 1.1//EN" "http://www.w3.org/Graphics/SVG/1.1/DTD/svg11.dtd">
<svg version="1.1" xmlns="http://www.w3.org/2000/svg" xmlns:xlink="http://www.w3.org/1999/xlink" width="210" height="89" viewBox="0 0 210 89">
<g id="icomoon-ignore">
</g>
<path d="M139.751 37.328l11.538-6.387c1.567-0.867 2.469 0.030 2.469 0.907v13.807c0 1.86-2.178 2.683-3.729 3.275l-8.314 3.174c-1.662 0.635-1.744 1.188-1.521 1.555 0.139 0.228 0.644 0.314 1.677 0.019l11.64-3.322c1.233-0.352 2.212-1.454 2.212-2.434v-8.516l1.915-0.050c0.772-0.020 1.565 0.94 1.562 1.713l-0.051 13.555c-0.003 0.824-1.091 1.562-1.915 1.562h-18.241c-1.202 0-2.373-1.519-2.368-2.721l0.051-12.036c0.010-2.32 0.898-2.895 3.075-4.101zM147.551 39.145c-0.573 0.825-0.543 1.761 0.068 2.091 0.61 0.33 1.57-0.072 2.143-0.897s0.543-1.761-0.068-2.091c-0.611-0.33-1.57 0.072-2.143 0.897z" fill="rgb(219, 125, 67)"></path>
<path d="M66.656 44.773h-1.394c-2.189 0-4.312-1.597-4.312-5.59 0-4.16 1.99-5.857 4.014-5.857h1.692v11.447zM68.845 31.196h-3.782c-3.715 0-6.867 2.828-6.867 8.32 0 3.294 1.527 5.723 4.246 6.921l-5.075 9.184c-0.166 0.3 0 0.532 0.265 0.532h2.355c0.199 0 0.332-0.067 0.398-0.232l4.611-9.019h1.659v9.019c0 0.099 0.1 0.232 0.231 0.232h2.057c0.199 0 0.265-0.1 0.265-0.265v-24.359c0.002-0.233-0.131-0.333-0.363-0.333z" fill="rgb(209, 74, 67)"></path>
<path d="M81.314 39.47h-2.057c-0.166 0-0.266 0.133-0.266 0.232v6.356h-3.815v-6.356c0-0.166-0.065-0.232-0.231-0.232h-2.058c-0.165 0-0.265 0.1-0.265 0.232v16.173c0 0.166 0.067 0.266 0.231 0.266h2.091c0.133 0 0.231-0.1 0.231-0.265v-7.72h3.815v7.72c0 0.166 0.1 0.266 0.266 0.266h2.057c0.166 0 0.232-0.133 0.232-0.265v-16.175c0.001-0.133-0.098-0.232-0.231-0.232zM128.275 55.076l-0.266-1.131c-0.032-0.1-0.066-0.133-0.165-0.133-0.166 0-1.062 0.365-2.355 0.365-2.521 0-3.749-2.428-3.749-6.289 0-3.395 1.029-6.755 2.754-6.755 0.465 0 1.029 0.133 1.923 0.966 0.1 0.1 0.166 0.133 0.266 0.133s0.199-0.067 0.299-0.233l0.896-1.464c0.066-0.101 0.099-0.201 0.099-0.301 0-0.133-0.133-0.233-0.332-0.332-1.36-0.699-2.289-0.832-3.085-0.832-3.118 0-5.54 3.726-5.54 9.549 0 5.026 2.323 7.92 5.64 7.92 1.394 0 2.886-0.664 3.484-1.098 0.131-0.099 0.163-0.232 0.131-0.365zM113.857 46.99l3.98-7.288c0.067-0.1 0.033-0.232-0.1-0.232h-1.957c-0.564 0-0.764 0.199-0.961 0.632l-2.987 6.223c-0.164 0.366-0.331 0.599-0.497 0.699v-7.321c0-0.133-0.066-0.232-0.199-0.232h-2.156c-0.099 0-0.199 0.1-0.199 0.233v16.206c0 0.1 0.067 0.232 0.199 0.232h2.156c0.133 0 0.199-0.099 0.199-0.232v-8.353c0.1 0.067 0.166 0.166 0.232 0.3l3.782 7.786c0.199 0.4 0.498 0.499 0.93 0.499h2.123c0.133 0 0.166-0.133 0.099-0.232l-4.644-8.92zM91.266 54.044h-4.81c1.692-2.895 2.355-6.155 2.587-10.149 0.066-0.865 0.099-1.765 0.099-2.33h2.124v12.479zM94.849 54.044h-0.399c-0.498 0-0.63-0.199-0.63-0.598v-13.744c0-0.166-0.066-0.232-0.199-0.232h-6.634c-0.166 0-0.265 0.1-0.265 0.233v1.197c0 4.026-0.233 9.218-2.355 13.145h-0.73c-0.199 0-0.266 0.101-0.266 0.267v4.859c0 0.167 0.133 0.232 0.232 0.232h1.593c0.364 0 0.497-0.266 0.497-0.499v-2.762h7.1v3.029c0 0.132 0.098 0.232 0.231 0.232h1.693c0.198 0 0.397-0.166 0.397-0.499v-4.592c-0.001-0.167-0.1-0.267-0.265-0.268zM101.251 46.292c-0.764 0-1.957 0.133-1.957 0.133s0-0.499 0.067-1.032c0.297-2.828 0.995-4.259 2.156-4.259 1.062 0 1.725 1.464 1.891 4.027 0.033 0.532 0.033 1.132 0.033 1.132h-2.19zM101.616 39.071c-3.582 0-5.175 4.525-5.175 9.45 0 5.025 2.255 8.019 5.573 8.019 1.625 0 3.052-0.632 3.782-1.098 0.133-0.067 0.166-0.166 0.133-0.299l-0.265-1.132c-0.033-0.133-0.1-0.199-0.266-0.199-0.131 0-1.094 0.365-2.455 0.365-2.554 0-3.748-2.229-3.748-5.157v-0.788c0 0 1.293 0.155 2.057 0.155h4.844v-1.397c-0.001-5.157-1.827-7.919-4.48-7.919z" fill="rgb(32, 22, 0)"></path>
</svg>
