<svg xmlns="http://www.w3.org/2000/svg" viewBox="391.257 621 32.441 45">
  <defs>
    <style>
      .cls-1 {
        fill: #fff;
      }
    </style>
  </defs>
  <g id="Group_30" data-name="Group 30" transform="translate(202.257 549)">
    <path id="Path_259" data-name="Path 259" class="cls-1" d="M101.921,32.24a4.448,4.448,0,0,0-3.389-3.481h0c-.03-.009.256.063-6.8-1.685v-.239h5.192a1.943,1.943,0,0,0,1.941-1.941v-9.9a2.425,2.425,0,0,0,0-1.12V10.257a.659.659,0,0,0-1.319,0v1.892a3.423,3.423,0,0,0-1.174-.43,1.72,1.72,0,0,0-1.449-1.325,2.149,2.149,0,0,1-1.7-1.307A1.13,1.13,0,0,0,91.3,8.91a12.063,12.063,0,0,1-9.724,5c-.414,0-.695-.02-.792-.024a1.744,1.744,0,0,0-1.845,1.74v1.515a8.942,8.942,0,0,0,2.756,6.44,8.829,8.829,0,0,0,1.9,1.385v.548H78.43a.623.623,0,0,1-.622-.622V10.079a8.755,8.755,0,0,1,8.646-8.76H86.5a11.235,11.235,0,0,1,4.985,1.226c.845.466,1.367.1,2.2.1,2.037,0,3.669,2.094,3.865,3.978,0,.028,0,.138,0,.561a.672.672,0,0,0,.66.659.659.659,0,0,0,.659-.66c0-.117,0-.576-.01-.683-.265-2.622-2.5-5.174-5.178-5.174-1.045,0-1.208.265-1.565.068A12.653,12.653,0,0,0,86.507,0,10.071,10.071,0,0,0,76.489,10.079V24.893a1.943,1.943,0,0,0,1.941,1.941H83.6v.239l-6.771,1.678-.027.007-.495.146-.044.015a4.375,4.375,0,0,0-2.851,3.321c-2.007,10.08-1.922,9.649-1.927,9.684A2.472,2.472,0,0,0,74.158,45h7.129a.659.659,0,1,0,0-1.319H78.806V37.464a.659.659,0,0,0-1.319,0v6.218h-3.33c-.876,0-1.384-.282-1.393-1.2,0-.449-.021-.011,1.94-9.982a3.09,3.09,0,0,1,2-2.335l.457-.135,3.888-.964c4.325,5.1,4.069,4.826,4.319,5.069a3.2,3.2,0,0,0,4.859-.283L94.3,29.067l3.873.96a3.2,3.2,0,0,1,2.455,2.47c1.945,9.885,1.944,9.532,1.94,9.982-.007.9-.494,1.2-1.393,1.2H97.869V37.464a.659.659,0,1,0-1.319,0v6.218H84.364a.659.659,0,1,0,0,1.319h16.811a2.423,2.423,0,0,0,2.711-2.51C103.892,41.736,103.847,42.1,101.921,32.24Zm-5.5-19.161a1.654,1.654,0,0,1,1.131.975v.755a1.654,1.654,0,0,1-1.131.975Zm0,4.179v-.122a3.415,3.415,0,0,0,1.131-.423v8.18a.623.623,0,0,1-.622.622H91.734v-.51A8.728,8.728,0,0,0,96.418,17.257ZM82.6,22.628a7.618,7.618,0,0,1-2.347-5.486c.039-1.435-.1-1.609.134-1.825A.416.416,0,0,1,80.7,15.2,13.243,13.243,0,0,0,92.182,9.931a3.383,3.383,0,0,0,2.572,1.77.4.4,0,0,1,.345.391v5.166A7.4,7.4,0,0,1,82.6,22.628ZM89.223,33A1.908,1.908,0,0,1,86.1,32.99l-1.376-1.624H90.61Zm2.51-2.948H83.61L82.477,28.71l1.94-.481a.667.667,0,0,0,.5-.646v-2.04a8.732,8.732,0,0,0,5.5.019,11.8,11.8,0,0,0,.037,2.245.659.659,0,0,0,.464.422l1.953.484Z" transform="translate(117.555 71.999)"/>
  </g>
</svg>
