<?xml version="1.0" encoding="UTF-8" standalone="no"?>
<svg
   xmlns:dc="http://purl.org/dc/elements/1.1/"
   xmlns:cc="http://creativecommons.org/ns#"
   xmlns:rdf="http://www.w3.org/1999/02/22-rdf-syntax-ns#"
   xmlns:svg="http://www.w3.org/2000/svg"
   xmlns="http://www.w3.org/2000/svg"
   viewBox="0 0 810 130"
   height="130"
   width="810"
   id="svg2"
   version="1.1">
  <metadata
     id="metadata8">
    <rdf:RDF>
      <cc:Work
         rdf:about="">
        <dc:format>image/svg+xml</dc:format>
        <dc:type
           rdf:resource="http://purl.org/dc/dcmitype/StillImage" />
        <dc:title></dc:title>
      </cc:Work>
    </rdf:RDF>
  </metadata>
  <defs
     id="defs6" />
  <g
     id="g212">
    <path
       id="path216"
       d="M 0,65 V 0 h 405 405 v 65 65 H 405 0 Z M 742.40497,98.757957 C 800.19536,71.679424 799.99252,71.800091 799.99252,64.5 c 0,-7.18311 -0.61157,-7.564221 -47.08405,-29.340985 C 709.70032,14.911902 709.43078,14.802801 694.5,11.517837 668.77392,5.8577672 665.70259,5.7909625 679.12419,11.183397 c 7.99989,3.214141 18.8862,10.00234 20.70089,12.90812 1.72179,2.757016 0.16098,2.430198 -7.98476,-1.671933 -6.60729,-3.327376 -19.61517,-6.978069 -20.76538,-5.827854 -1.7234,1.723396 5.41224,5.680062 36.80521,20.40827 l 35.16953,16.5 -65.27484,0.782267 C 641.18334,54.720788 558.67054,54.617738 490,54.047757 241.54618,51.985533 195.97848,51.782962 146.77342,52.521946 119.12304,52.937212 97.4,53.620496 98.5,54.040356 c 1.1,0.419859 4.1375,1.519758 6.75,2.44422 12.7441,4.509641 0.26008,7.46905 -40.25,9.541492 -39.233892,2.007153 -48.099535,4.705951 -22.864628,6.960241 7.372995,0.658646 35.072861,0.751533 78.864628,0.264459 111.67014,-1.24205 536.16175,-0.546025 582.2764,0.95474 L 743.0528,75.5 707.85836,92.004114 c -19.35694,9.077266 -35.37419,17.043366 -35.59388,17.702446 -0.2441,0.73229 1.86306,1.84015 5.41804,2.84861 8.92366,2.53142 10.52122,3.84187 9.74269,7.9918 -0.35629,1.89917 -0.26021,3.45661 0.2135,3.46099 0.47371,0.004 25.11852,-11.35813 54.76626,-25.250003 z"
       style="fill:#fefefe" />
    <path
       id="path214"
       d="m 687.42521,120.54697 c 0.77853,-4.14993 -0.81903,-5.46038 -9.74269,-7.9918 -3.55498,-1.00846 -5.66214,-2.11632 -5.41804,-2.84861 0.21969,-0.65908 16.23694,-8.62518 35.59388,-17.702446 L 743.0528,75.5 703.2764,74.205508 C 657.16175,72.704743 232.67014,72.008718 121,73.250768 77.208233,73.737842 49.508367,73.644955 42.135372,72.986309 16.900465,70.732019 25.766108,68.033221 65,66.026068 c 40.51008,-2.072442 52.9941,-5.031851 40.25,-9.541492 -2.6125,-0.924462 -5.65,-2.024361 -6.75,-2.44422 -1.1,-0.41986 20.62304,-1.103144 48.27342,-1.51841 49.20506,-0.738984 94.77276,-0.536413 343.22658,1.525811 68.67054,0.569981 151.18334,0.673031 187.77484,0.23451 L 743.04968,53.5 707.88015,37 C 676.48718,22.271792 669.35154,18.315126 671.07494,16.59173 c 1.15021,-1.150215 14.15809,2.500478 20.76538,5.827854 8.14574,4.102131 9.70655,4.428949 7.98476,1.671933 -1.81469,-2.90578 -12.701,-9.693979 -20.70089,-12.90812 -13.4216,-5.3924345 -10.35027,-5.3256298 15.37581,0.33444 14.93078,3.284964 15.20032,3.394065 58.40847,23.641178 46.47248,21.776764 47.08405,22.157875 47.08405,29.340985 0,7.300091 0.20284,7.179424 -57.58755,34.257957 -29.64774,13.891873 -54.29255,25.254373 -54.76626,25.250003 -0.47371,-0.004 -0.56979,-1.56182 -0.2135,-3.46099 z"
       style="fill:#1555b7" />
  </g>
</svg>
