<?xml version="1.0" encoding="utf-8"?>
<!-- Generated by IcoMoon.io -->
<!DOCTYPE svg PUBLIC "-//W3C//DTD SVG 1.1//EN" "http://www.w3.org/Graphics/SVG/1.1/DTD/svg11.dtd">
<svg version="1.1" xmlns="http://www.w3.org/2000/svg" xmlns:xlink="http://www.w3.org/1999/xlink" width="210" height="89" viewBox="0 0 210 89">
<g id="icomoon-ignore">
</g>
<path d="M94.61 67.423c-1.3-2.65-3.611-4.599-6.115-6.088-0.868-0.518-1.849-0.885-2.702-1.163-1.965-0.636-3.868-0.784-6.082-1.162-1.804-0.309-3.228-1.050-4.754-2.086-0.797-0.543-1.448-1.289-1.99-2.082-0.101-0.158-0.611-0.776-0.558-0.989 0 0-0.355 1.418 0.347 3.408-6.448-0.292-12.101-3.865-14.691-8.199-4.766-7.976-3.086-17.642 3.268-21.912s16.040-1.26 21.227 6.451c3.254 4.837 4.086 10.467 2.692 15.042-0.010 0.036-0.022 0.070-0.033 0.106-2.756-2.003-5.273-0.983-5.273-0.983 2.763-0.285 4.945 1.914 4.945 1.914 0.321 0.284 0.628 0.599 0.909 0.948 0.064 0.087 0.127 0.173 0.19 0.265 0.722 0.984 1.174 2.075 1.365 3.181 5.484-6.955 6.39-16.587 1.537-24.068-6.18-9.537-19.355-11.971-29.42-5.446-10.072 6.531-13.222 19.545-7.041 29.080 5.078 7.843 16.991 10.235 23.822 8.076 2.583-0.814 11.424-1.587 17.576 5.682 0 0 0.532 0.609 0.821 1.302 0 0 0.086 0.244 0.313 0.126 0.062-0.033 0.233-0.23-0.353-1.403v0zM81.941 54.55v0c-0.006-0.006-0.012-0.006-0.020-0.011-0.014 0-0.026-0.006-0.033-0.007-0.016-0.007-0.029-0.013-0.043-0.016-0.010 0-0.022 0-0.026-0.006-0.022-0.006-0.044-0.012-0.068-0.019-0.287-0.053-0.569-0.010-0.806 0.142-0.532 0.364-0.614 1.184-0.177 1.839 0.205 0.295 0.478 0.502 0.774 0.615 0.003 0 0.009 0 0.022 0.006 0.007 0.003 0.022 0.009 0.029 0.011 0.014 0.004 0.029 0.004 0.041 0.009 0.013 0 0.017 0.005 0.026 0.010 0.022 0.003 0.042 0.014 0.065 0.015 0.284 0.057 0.569 0.014 0.807-0.144 0.535-0.364 0.617-1.179 0.18-1.832-0.201-0.299-0.476-0.508-0.771-0.612v0zM85.511 53.042v0c-0.452-0.169-0.492 0.366-0.378 0.714 0.252 0.812 0.594 1.433 0.842 1.559 0.241 0.145 0.523-0.189 0.342-1.004-0.076-0.352-0.346-1.089-0.806-1.269v0z" fill="rgb(255, 153, 0)"></path>
<path d="M136.209 34.548h-1.388c-0.283 0-0.388 0.078-0.467 0.408l-2.368 9.338-2.896-9.279c-0.121-0.388-0.141-0.424-0.282-0.466h-0.776c-0.224 0-0.267 0.118-0.368 0.408l-2.85 9.338-2.351-9.299c-0.1-0.431-0.188-0.446-0.53-0.446h-1.914c-0.205 0-0.392 0.062-0.392 0.305 0 0.078 0 0.103 0.064 0.324l3.814 13.379c0.103 0.325 0.209 0.38 0.576 0.38 0.302 0 0.853 0 0.913-0.018 0.201-0.019 0.244-0.081 0.348-0.382l2.731-8.692 2.915 8.712c0.101 0.308 0.164 0.362 0.365 0.38h1.006c0.282 0 0.343-0.073 0.446-0.401l3.756-13.359c0.037-0.203 0.056-0.286 0.056-0.366-0.003-0.264-0.184-0.264-0.408-0.264v0zM109.596 52.513v0c-1.222-0.328-3.749-1.208-4.422-3.509 3.647-1.366 4.525-4.893 4.525-7.319 0-4.403-2.612-7.469-6.465-7.469-3.549 0-6.524 2.574-6.524 7.625 0 3.31 1.53 6.715 5.568 7.367 1.671 3.931 7.013 4.548 7.421 4.548 0.572 0 0.711-0.37 0.711-0.595 0-0.446-0.304-0.528-0.814-0.648v0zM103.195 47.579v0c-0.266 0-1.693 0-2.715-1.693-0.731-1.246-0.895-2.939-0.895-4.201 0-1.368 0.184-2.995 0.895-4.141 0.698-1.079 1.753-1.611 2.736-1.611 0.464 0 1.714 0.122 2.633 1.549 0.855 1.327 0.975 3.142 0.975 4.121 0.022 1.197-0.103 2.912-0.797 4.159-0.731 1.281-1.836 1.817-2.832 1.817v0zM115.795 34.548v0h-1.94c-0.365 0-0.405 0.142-0.423 0.426v13.515c0 0.375 0.162 0.43 0.444 0.448h1.899c0.266 0 0.445-0.056 0.445-0.448v-13.515c0.002-0.364-0.117-0.426-0.425-0.426v0zM142.406 34.548v0h-1.939c-0.367 0-0.409 0.142-0.425 0.426v13.515c0 0.375 0.162 0.43 0.445 0.448h1.9c0.265 0 0.446-0.056 0.446-0.448v-13.515c0-0.364-0.125-0.426-0.427-0.426v0z" fill="rgb(33, 102, 186)"></path>
<path d="M115.238 51.516v2.329h0.207l1.729-2.329h1.684l-2.237 2.467c0.773 0.115 1.245 0.727 1.626 1.626 0.173 0.415 0.38 1.038 0.634 1.522h-1.476c-0.15-0.242-0.311-0.657-0.519-1.199-0.3-0.761-0.727-1.13-1.465-1.13h-0.184v2.329h-1.418v-5.615h1.419z" fill="rgb(255, 153, 0)"></path>
<path d="M124.347 54.272c0 2.064-1.453 2.987-2.883 2.987-1.591 0-2.813-1.095-2.813-2.894 0-1.845 1.211-2.975 2.906-2.975 1.672-0.001 2.79 1.175 2.79 2.882v0zM120.116 54.329v0c0 1.084 0.531 1.903 1.395 1.903 0.807 0 1.372-0.796 1.372-1.926 0-0.876-0.392-1.879-1.361-1.879-1.003 0-1.406 0.969-1.406 1.902v0z" fill="rgb(255, 153, 0)"></path>
<path d="M126.331 51.516v4.52h1.637v-4.52h1.407v4.52h1.638v-4.52h1.395v5.615h-7.484v-5.615h1.407z" fill="rgb(255, 153, 0)"></path>
<path d="M134.345 54.721c0.035 1.015 0.83 1.453 1.729 1.453 0.657 0 1.13-0.092 1.557-0.254l0.207 0.98c-0.484 0.196-1.153 0.357-1.96 0.357-1.822 0-2.894-1.13-2.894-2.848 0-1.557 0.945-3.021 2.744-3.021 1.833 0 2.421 1.499 2.421 2.733 0 0.265-0.023 0.473-0.046 0.599l-3.758 0.001zM136.813 53.73v0c0.012-0.519-0.219-1.372-1.164-1.372-0.876 0-1.245 0.796-1.303 1.372h2.467z" fill="rgb(255, 153, 0)"></path>
<path d="M143.374 51.516v5.615h-1.43v-4.52h-1.522v1.211c0 1.465-0.161 2.456-0.83 2.952-0.323 0.311-0.738 0.461-1.407 0.461l-0.15-1.107c0.242-0.046 0.461-0.138 0.599-0.277 0.415-0.346 0.461-0.992 0.461-2.076v-2.26l4.279 0.001z" fill="rgb(255, 153, 0)"></path>
<path d="M145.3 54.721c0.035 1.015 0.83 1.453 1.73 1.453 0.657 0 1.13-0.092 1.557-0.254l0.207 0.98c-0.484 0.196-1.153 0.357-1.96 0.357-1.822 0-2.894-1.13-2.894-2.848 0-1.557 0.946-3.021 2.744-3.021 1.833 0 2.422 1.499 2.422 2.733 0 0.265-0.023 0.473-0.046 0.599l-3.76 0.001zM147.767 53.73v0c0.012-0.519-0.219-1.372-1.164-1.372-0.876 0-1.245 0.796-1.303 1.372h2.467z" fill="rgb(255, 153, 0)"></path>
<path d="M151.089 51.516v2.329h0.207l1.729-2.329h1.684l-2.237 2.467c0.773 0.115 1.245 0.727 1.626 1.626 0.173 0.415 0.38 1.038 0.634 1.522h-1.476c-0.15-0.242-0.311-0.657-0.518-1.199-0.3-0.761-0.727-1.13-1.465-1.13h-0.184v2.329h-1.418v-5.615h1.418z" fill="rgb(255, 153, 0)"></path>
</svg>
