<?xml version="1.0" encoding="UTF-8" standalone="no"?>
<svg
   xmlns:dc="http://purl.org/dc/elements/1.1/"
   xmlns:cc="http://creativecommons.org/ns#"
   xmlns:rdf="http://www.w3.org/1999/02/22-rdf-syntax-ns#"
   xmlns:svg="http://www.w3.org/2000/svg"
   xmlns="http://www.w3.org/2000/svg"
   xmlns:sodipodi="http://sodipodi.sourceforge.net/DTD/sodipodi-0.dtd"
   xmlns:inkscape="http://www.inkscape.org/namespaces/inkscape"
   version="1.1"
   id="Layer_1"
   x="0px"
   y="0px"
   width="983.65759"
   height="154.10873"
   viewBox="0 0 983.65759 154.10873"
   xml:space="preserve"
   sodipodi:docname="pay-method.svg"
   inkscape:version="0.92.1 r15371"><sodipodi:namedview
     pagecolor="#ffffff"
     bordercolor="#666666"
     borderopacity="1"
     objecttolerance="10"
     gridtolerance="10"
     guidetolerance="10"
     inkscape:pageopacity="0"
     inkscape:pageshadow="2"
     inkscape:window-width="972"
     inkscape:window-height="716"
     id="namedview48"
     showgrid="false"
     fit-margin-top="0"
     fit-margin-left="0"
     fit-margin-right="0"
     fit-margin-bottom="0"
     inkscape:zoom="0.38518826"
     inkscape:cx="912.2639"
     inkscape:cy="80.415569"
     inkscape:window-x="509"
     inkscape:window-y="84"
     inkscape:window-maximized="0"
     inkscape:current-layer="Layer_1" /><metadata
     id="metadata30"><rdf:RDF><cc:Work
         rdf:about=""><dc:format>image/svg+xml</dc:format><dc:type
           rdf:resource="http://purl.org/dc/dcmitype/StillImage" /><dc:title></dc:title></cc:Work></rdf:RDF></metadata><defs
     id="defs28" /><style
     type="text/css"
     id="style3">
	.st0{fill-rule:evenodd;clip-rule:evenodd;fill:#4DB45E;}
	.st1{fill-rule:evenodd;clip-rule:evenodd;fill:url(#SVGID_1_);}
</style><g
     transform="matrix(0.46315789,0,0,0.42360378,606.96284,25.65367)"
     id="g5"><path
       style="clip-rule:evenodd;fill:#4db45e;fill-rule:evenodd"
       class="st0"
       d="m 218,0 v 0.1 c -0.1,0 -31.6,-0.1 -40,30 -7.7,27.6 -29.4,103.8 -30,105.9 h -6 C 142,136 119.8,58.1 112,30 103.6,-0.1 72,0 72,0 H 0 V 229 H 72 V 93 h 3 3 l 42,136 h 50 L 212,93.1 h 6 V 229 h 72 V 0 Z"
       id="path7"
       inkscape:connector-curvature="0" /></g><g
     transform="matrix(0.46315789,0,0,0.42360378,606.96284,25.65367)"
     id="g9"><path
       style="clip-rule:evenodd;fill:#4db45e;fill-rule:evenodd"
       class="st0"
       d="m 481,0 c 0,0 -21.1,1.9 -31,24 l -51,112 h -6 V 0 h -72 v 229 h 68 v 0 c 0,0 22.1,-2 32,-24 L 471,93 h 6 v 136 h 72 V 0 Z"
       id="path11"
       inkscape:connector-curvature="0" /></g><g
     transform="matrix(0.46315789,0,0,0.42360378,606.96284,25.65367)"
     id="g13"><path
       style="clip-rule:evenodd;fill:#4db45e;fill-rule:evenodd"
       class="st0"
       d="m 581,104 v 125 h 72 v -73 h 78 c 34,0 62.8,-21.7 73.5,-52 z"
       id="path15"
       inkscape:connector-curvature="0" /></g><g
     transform="matrix(0.46315789,0,0,0.42360378,608.96284,25.65367)"
     id="g17"><linearGradient
       id="SVGID_1_"
       gradientUnits="userSpaceOnUse"
       x1="570.91937"
       y1="47"
       x2="809"
       y2="47"><stop
         offset="0.3"
         style="stop-color:#00B4E6"
         id="stop20" /><stop
         offset="1"
         style="stop-color:#088CCB"
         id="stop22" /></linearGradient><path
       style="clip-rule:evenodd;fill:url(#SVGID_1_);fill-rule:evenodd"
       class="st1"
       d="M 731,0 H 570.9 c 8,43.6 40.7,78.6 83,90 v 0 c 9.6,2.6 19.7,4 30.1,4 H 807.4 C 808.5,88.8 809,83.5 809,78 809,34.9 774.1,0 731,0 Z"
       id="path24"
       inkscape:connector-curvature="0" /></g><g
     id="icomoon-ignore"
     transform="matrix(4.313741,0,0,4.035892,81.701145,124.02228)" /><path
     id="path3"
     d="M 553.59304,154.10873 H 315.04748 V 1.2775677 h 242.6695 V 154.10873 Z"
     style="fill:#3f5d92;stroke-width:4.17250443"
     inkscape:connector-curvature="0" /><path
     id="path5"
     d="M 553.59304,150.25042 H 319.17141 V 5.1358777 h 234.42163 z"
     style="fill:#ffffff;stroke-width:4.17250443"
     inkscape:connector-curvature="0" /><path
     id="path7-5"
     d="m 403.8976,101.26276 15.22319,-46.969712 h 13.58397 l -15.22319,46.969712 z"
     style="fill:#3f5d92;stroke-width:4.17250443"
     inkscape:connector-curvature="0" /><path
     id="path9"
     d="m 397.82385,54.309188 -12.22083,19.909056 c -3.1102,5.21437 -4.9306,7.84981 -5.80198,11.14309 h -0.18549 c 0.21569,-4.17714 -0.40549,-9.30676 -0.46588,-12.20453 l -1.3502,-18.847616 h -22.86714 l -0.23295,1.26324 c 5.87532,0 9.35651,2.76055 10.31847,8.410786 l 4.4561,37.279546 h 14.07142 l 28.45775,-46.953572 z"
     style="fill:#3f5d92;stroke-width:4.17250443"
     inkscape:connector-curvature="0" /><path
     id="path11-0"
     d="m 503.46306,101.26276 -0.3753,-6.986136 -16.96163,-0.0121 -3.46825,6.998246 H 467.9092 l 26.74088,-46.876892 h 18.10477 l 4.52943,46.876892 z M 501.9058,73.556354 c -0.15099,-3.47087 -0.27608,-8.18075 -0.0259,-11.034126 h -0.19843 c -0.82824,2.332746 -4.37845,9.330976 -5.94002,12.777636 l -5.0557,10.29556 h 11.91023 z"
     style="fill:#3f5d92;stroke-width:4.17250443"
     inkscape:connector-curvature="0" /><path
     id="path13"
     d="m 446.96599,102.5946 c -9.58945,0 -15.95653,-2.8453 -20.4989,-5.383886 l 6.47061,-9.24622 c 4.0808,2.13498 7.2816,4.59688 14.65378,4.59688 2.36825,0 4.65022,-0.57714 5.94865,-2.6758 1.88942,-3.05517 -0.43569,-4.69778 -5.74159,-7.5108 l -2.61844,-1.59417 c -7.86826,-5.02872 -11.26749,-9.80722 -7.5663,-18.141336 2.36824,-5.33545 8.61885,-9.37537 18.9287,-9.37537 7.10904,0 13.77377,2.87759 17.66045,5.6906 l -7.43689,8.160576 c -3.79178,-2.86952 -6.93218,-4.318406 -10.52984,-4.318406 -2.86864,0 -5.04708,1.033186 -5.79767,2.429606 -1.41491,2.62333 0.45726,4.41123 4.58982,6.81259 l 3.11452,1.85651 c 9.55063,5.6341 11.82397,11.54668 9.43415,17.06778 -4.1153,9.508566 -12.17769,11.631446 -20.61105,11.631446 z"
     style="fill:#3f5d92;stroke-width:4.17250443"
     inkscape:connector-curvature="0" /><path
     id="path15-4"
     d="m 521.32194,60.661688 h -0.58666 v -3.34979 h 1.35882 c 0.86707,0 1.30707,0.28251 1.30707,0.96457 0,0.60539 -0.39687,0.85965 -0.93608,0.91615 l 1.00078,1.4731 h -0.66431 l -0.92746,-1.43274 h -0.55216 z m 0.66001,-1.90495 c 0.44,0 0.82823,-0.0403 0.82823,-0.52466 0,-0.40359 -0.42274,-0.45202 -0.77647,-0.45202 h -0.71177 v 0.98072 h 0.66001 z m -0.0173,3.20047 c -1.85922,0 -3.18354,-1.3036 -3.18354,-3.02692 0,-1.82019 1.47099,-3.02692 3.18354,-3.02692 1.6953,0 3.16629,1.20673 3.16629,3.02692 0,1.82019 -1.47099,3.02692 -3.16629,3.02692 z m 0,-5.52917 c -1.40196,0 -2.48903,1.02915 -2.48903,2.50225 0,1.37624 0.95334,2.50225 2.48903,2.50225 1.38471,0 2.47609,-1.02108 2.47609,-2.50225 -0.004,-1.4731 -1.09138,-2.50225 -2.47609,-2.50225 z"
     style="fill:#3f5d92;stroke-width:4.17250443"
     inkscape:connector-curvature="0" /><path
     id="path17"
     d="M 547.82125,115.84444 H 325.35732 v 27.84765 h 222.46393 z"
     style="fill:#e6a149;stroke-width:4.17250443"
     inkscape:connector-curvature="0" /><path
     id="path19"
     d="M 547.41145,12.077618 H 324.9432 v 27.84765 h 222.46825 z"
     style="fill:#3f5d92;stroke-width:4.17250443"
     inkscape:connector-curvature="0" /><path
     id="path21"
     d="m 134.4593,131.77994 c 14.17064,12.21665 33.19855,19.62251 53.89588,19.62251 44.44878,0 80.42538,-33.91764 80.42538,-75.63666 C 268.78056,33.91763 232.80396,0 188.35518,0 167.65785,0 148.62994,7.40586 134.4593,19.6225 c -16.25418,13.90365 -26.52951,33.91764 -26.52951,56.14329 0,22.22565 10.27964,42.23965 26.52951,56.01415 z"
     style="fill:#eaa94d;stroke-width:4.17250443"
     inkscape:connector-curvature="0" /><path
     id="path23"
     d="m 160.43664,67.71015 c -0.27607,-2.72827 -0.83255,-5.32738 -1.38902,-8.05563 h -49.17233 c 0.55647,-2.72827 1.38902,-5.32738 2.22157,-7.9265 H 156.688 c -0.9749,-2.72826 -2.08353,-5.45652 -3.33452,-8.05564 h -37.78406 c 1.38903,-2.72826 2.91609,-5.45652 4.58551,-8.05564 h 28.47501 c -1.80746,-2.72826 -3.891,-5.45652 -6.11258,-7.92649 h -16.25417 c 2.50197,-2.85741 5.28002,-5.58971 8.19611,-8.05564 C 120.15062,7.54711 101.26075,0.0121 80.425386,0.0121 36.114636,0.0121 0,33.92974 0,75.77789 c 0,41.71499 36.114636,75.63667 80.425386,75.63667 20.835364,0 39.725234,-7.40587 54.033914,-19.62251 v 0 0 c 2.91609,-2.46997 5.55609,-5.06908 8.05806,-7.92649 h -16.25417 c -2.22158,-2.59912 -4.16708,-5.19823 -6.11257,-8.05564 h 28.475 c 1.80746,-2.59912 3.33452,-5.19823 4.72355,-8.05564 h -37.78406 c -1.25098,-2.59912 -2.50197,-5.19823 -3.47256,-7.9265 h 44.59114 c 0.97059,-2.59912 1.6651,-5.32738 2.35962,-8.05565 0.55647,-2.59911 1.11294,-5.32737 1.38902,-8.05564 0.27608,-2.59911 0.41843,-5.19823 0.41843,-7.92649 0.004,-2.75248 -0.13804,-5.48074 -0.41412,-8.07985 z"
     style="fill:#d24a48;stroke-width:4.17250443"
     inkscape:connector-curvature="0" /><path
     id="path25"
     d="m 258.0868,93.31384 c 0,-1.4287 1.11295,-2.46996 2.50197,-2.46996 1.52706,0 2.64001,1.04126 2.64001,2.46996 0,1.29956 -1.11295,2.46997 -2.64001,2.46997 -1.38902,0 -2.50197,-1.17041 -2.50197,-2.46997 z m 2.50197,1.82019 c 1.11295,0 2.08354,-0.77893 2.08354,-1.82019 0,-1.04126 -0.97059,-1.82018 -2.08354,-1.82018 -0.97059,0 -1.9455,0.77892 -1.9455,1.82018 0,1.04126 0.97059,1.82019 1.9455,1.82019 z m -0.28039,-0.78296 h -0.55648 v -2.07849 h 0.9706 c 0.13804,0 0.41843,0 0.55647,0 0.27608,0.12915 0.27608,0.39149 0.27608,0.64978 0,0.12915 -0.13804,0.39148 -0.41843,0.52063 l 0.55647,0.90808 h -0.69451 l -0.27608,-0.77893 h -0.41844 v 0.77893 -1.17041 h 0.27608 c 0.13804,0 0.27608,0 0.27608,-0.12915 0.13804,0 0.13804,-0.12915 0.13804,-0.2583 0,0 0,-0.12914 -0.13804,-0.12914 0,-0.12915 -0.13804,0 -0.27608,0 h -0.27608 v 1.687 z"
     style="fill:#ffffff;stroke-width:4.17250443"
     inkscape:connector-curvature="0" /><path
     id="path27"
     d="m 107.09724,97.59996 c -2.64001,0.64978 -4.58551,1.04126 -6.52669,1.04126 -4.167074,0 -6.669044,-2.46996 -6.669044,-6.88927 0,-0.90807 0.13804,-1.82018 0.27608,-2.86144 l 0.55648,-2.9906 0.41843,-2.46997 3.748639,-21.31354 h 8.334145 l -0.97059,4.6776 h 5.28001 l -1.25098,7.79734 h -5.28002 l -2.22158,12.73728 c -0.13804,0.64978 -0.13804,1.04126 -0.13804,1.29955 0,1.69104 0.83256,2.34082 2.91609,2.34082 0.97059,0 1.80746,-0.12915 2.64001,-0.2583 z"
     style="fill:#2f3c6a;stroke-width:4.17250443"
     inkscape:connector-curvature="0" /><path
     id="path29"
     d="m 134.04518,97.34166 c -3.05413,0.77893 -5.83218,1.17041 -8.89062,1.17041 -9.4471,0 -14.86084,-4.6776 -14.86084,-13.90364 0,-10.78794 6.38865,-18.58529 15.27927,-18.58529 7.08316,0 11.66867,4.4193 11.66867,11.30454 0,2.34081 -0.27608,4.54845 -0.97059,7.66819 h -17.36281 c -0.13804,0.52063 -0.13804,0.77893 -0.13804,1.04126 0,3.64038 2.64001,5.45653 7.63964,5.45653 3.19648,0 5.97453,-0.64978 9.02866,-1.94934 z M 128.9032,78.75638 c 0,-0.64978 0,-1.17041 0,-1.55785 0,-2.59912 -1.52707,-4.02782 -4.16708,-4.02782 -2.77805,0 -4.72354,1.94933 -5.55609,5.58971 z"
     style="fill:#2f3c6a;stroke-width:4.17250443"
     inkscape:connector-curvature="0" /><path
     id="path31"
     d="m 40.419746,97.99144 h -8.61023 l 4.99963,-29.50237 -11.25024,29.50237 h -5.97453 l -0.69451,-29.36918 -5.2757,29.36918 H 5.13766 l 6.807086,-38.33692 h 12.64357 l 0.27608,23.65031 8.47219,-23.65031 h 13.89025 z"
     style="fill:#2f3c6a;stroke-width:4.17250443"
     inkscape:connector-curvature="0" /><path
     id="path33"
     d="m 61.397466,84.08376 c -0.83255,-0.12915 -1.11294,-0.12915 -1.6651,-0.12915 -4.99963,0 -7.5016,1.82019 -7.5016,4.6776 0,1.94934 1.25099,3.24889 3.19649,3.24889 4.16276,0 5.83217,-3.24889 5.97021,-7.79734 z m 6.94513,13.90768 h -7.5016 l 0.13804,-3.24889 c -1.9455,2.46997 -4.5855,3.76952 -9.1667,3.76952 -4.16707,0 -7.77767,-3.50719 -7.77767,-8.57627 0,-1.4287 0.27608,-2.72826 0.69451,-4.02782 1.38902,-4.80674 6.52669,-7.79734 14.44672,-7.92649 0.97059,0 2.50197,0 3.89099,0.12915 0.27608,-1.04126 0.27608,-1.42871 0.27608,-2.07849 0,-2.07848 -1.80746,-2.72826 -5.83218,-2.72826 -2.50197,0 -5.28002,0.39148 -7.2212,1.04126 l -1.25098,0.2583 -0.55648,0.12915 1.25099,-7.01842 c 4.02903,-1.17041 6.94512,-1.69104 10.1416,-1.69104 7.5016,0 11.53063,3.2489 11.53063,9.22605 0,1.55786 0.13804,2.72826 -0.41843,6.10631 l -1.9455,11.17538 -0.27608,1.94934 -0.13804,1.55785 -0.13804,1.04126 z"
     style="fill:#2f3c6a;stroke-width:4.17250443"
     inkscape:connector-curvature="0" /><path
     id="path35"
     d="m 175.99199,67.06037 c 2.50197,0 4.72355,0.64978 7.77768,2.07848 l 1.52706,-8.31796 c -0.83255,-0.39148 -1.11294,-0.39148 -2.22157,-0.77893 l -3.47256,-0.90807 c -1.11295,-0.2583 -2.50197,-0.39149 -4.02904,-0.39149 -4.30511,0 -6.80708,0.12915 -9.44709,1.55786 -1.38903,0.90807 -3.19648,2.07847 -5.13767,4.15696 l -1.11294,-0.2583 -8.89062,5.84801 0.41843,-3.2489 h -9.1667 l -5.41806,31.18938 h 8.75258 l 3.19649,-16.7651 c 0,0 1.25098,-2.34082 1.80745,-3.11974 1.66511,-1.94934 3.05413,-1.94934 4.86159,-1.94934 0.27608,0 0.55647,0 0.69451,0 -0.27608,1.82019 -0.41843,3.76952 -0.41843,5.97716 0,10.13816 6.11257,16.50276 15.55535,16.50276 2.35961,0 4.44315,-0.2583 7.63963,-1.04126 l 1.52707,-8.8386 c -2.77805,1.4287 -5.28002,2.07848 -7.36356,2.07848 -5.13766,0 -8.19611,-3.64037 -8.19611,-9.3552 0.004,-8.43905 4.58982,-14.4162 11.11651,-14.4162 z"
     style="fill:#2f3c6a;stroke-width:4.17250443"
     inkscape:connector-curvature="0" /><path
     id="path37"
     d="m 249.75265,59.65452 -1.94549,10.91707 c -2.08354,-2.99059 -4.58551,-4.4193 -7.91572,-4.4193 -4.58551,0 -8.89062,2.46997 -11.53063,7.14757 v -0.12915 l -5.5561,-3.11975 0.55648,-3.24889 h -9.30906 l -5.28002,31.18937 h 8.61023 l 2.91609,-16.76509 c 0,0 2.22158,-2.34082 2.77805,-3.11975 1.38902,-1.55785 2.77805,-1.82018 3.89099,-1.94933 -0.97059,2.59911 -1.52706,5.71886 -1.52706,9.22605 0,7.79734 4.30511,12.99557 10.69376,12.99557 3.19648,0 5.69414,-1.04126 8.05807,-3.50719 l -0.41843,3.11974 h 8.19611 l 6.66904,-38.33692 z m -10.69376,30.92703 c -2.91609,0 -4.44315,-2.07849 -4.44315,-6.10631 0,-6.1063 2.77804,-10.52561 6.80708,-10.52561 3.05413,0 4.58551,2.20764 4.58551,6.10631 -0.004,6.23949 -2.78237,10.52561 -6.94944,10.52561 z"
     style="fill:#2f3c6a;stroke-width:4.17250443"
     inkscape:connector-curvature="0" /><path
     id="path39"
     d="m 198.91521,84.08376 c -0.83255,-0.12915 -1.11294,-0.12915 -1.6651,-0.12915 -4.99963,0 -7.5016,1.82019 -7.5016,4.6776 0,1.94934 1.25099,3.24889 3.19649,3.24889 4.16276,0 5.82786,-3.24889 5.97021,-7.79734 z m 6.94513,13.90768 h -7.63964 l 0.27608,-3.24889 c -1.9455,2.46997 -4.5855,3.76952 -9.1667,3.76952 -4.30511,0 -8.05807,-3.37804 -8.05807,-8.57627 0,-7.40586 5.97454,-11.95431 15.41731,-11.95431 0.9706,0 2.50197,0 3.74865,0.12915 0.27607,-1.04126 0.41843,-1.42871 0.41843,-2.07849 0,-2.07848 -1.80746,-2.72826 -5.97453,-2.72826 -2.35962,0 -5.28002,0.39148 -7.22121,1.04126 l -1.66941,0.38745 1.25098,-7.01842 c 4.02904,-1.17041 6.94512,-1.69104 10.14161,-1.69104 7.50159,0 11.38827,3.2489 11.38827,9.22605 0,1.55786 0.27608,2.72826 -0.41843,6.10631 l -1.80746,11.17538 -0.27608,1.94934 -0.27608,1.55785 -0.13804,1.04126 v 0.91211 z"
     style="fill:#2f3c6a;stroke-width:4.17250443"
     inkscape:connector-curvature="0" /><path
     id="path41"
     d="m 86.537956,73.429 c 1.6651,0 4.02903,0.12915 6.52669,0.52063 l 1.25098,-7.27671 c -2.50197,-0.2583 -5.83649,-0.64978 -7.77767,-0.64978 -9.72317,0 -12.91966,4.93993 -12.91966,10.65476 0,3.76952 1.80746,6.49778 6.52669,8.57627 3.47256,1.55785 4.02904,1.82019 4.02904,3.24889 0,1.94934 -1.80746,3.11975 -5.13767,3.11975 -2.64001,0 -5.13766,-0.39149 -7.91571,-1.29956 l -0.97059,7.14756 0.13803,0.12915 1.66511,0.2583 c 0.55647,0.12915 1.25098,0.2583 2.22158,0.39148 2.08353,0.12915 3.89099,0.2583 4.99962,0.2583 9.72317,0 13.75221,-3.50719 13.75221,-10.39646 0,-4.29015 -2.22158,-6.88927 -6.52669,-8.70542 -3.74864,-1.55785 -4.16708,-1.82019 -4.16708,-3.24889 0,-1.42871 1.66511,-2.72827 4.30512,-2.72827 z"
     style="fill:#2f3c6a;stroke-width:4.17250443"
     inkscape:connector-curvature="0" /><path
     id="path43"
     d="m 187.66066,58.35496 -1.52706,8.31796 c -3.05413,-1.4287 -5.28002,-2.07848 -7.77768,-2.07848 -6.52669,0 -11.11219,5.97715 -11.11219,14.42428 0,5.848 3.05413,9.35519 8.19611,9.35519 2.08353,0 4.5855,-0.64978 7.36355,-1.94933 L 181.27633,95.13 c -3.19648,0.77892 -5.28002,1.1704 -7.63964,1.1704 -9.44709,0 -15.27927,-6.36863 -15.27927,-16.63594 0,-13.64535 8.05807,-23.26287 19.58439,-23.26287 1.52706,0 2.91608,0.12914 4.02903,0.39148 l 3.47256,0.77892 c 1.10863,0.39149 1.38471,0.52064 2.21726,0.78297 z"
     style="fill:#ffffff;stroke-width:4.17250443"
     inkscape:connector-curvature="0" /><path
     id="path45"
     d="m 159.60409,64.07381 c -0.27608,0 -0.55647,0 -0.83255,0 -2.91609,0 -4.58551,1.29955 -7.2212,5.06908 l 0.83255,-4.80675 h -7.92003 l -5.41806,31.18937 h 8.75258 c 3.19649,-19.10591 4.02904,-22.35077 8.19611,-22.35077 0.27608,0 0.27608,0 0.55647,0 0.83256,-3.76952 1.9455,-6.49778 3.33453,-8.96775 z"
     style="fill:#ffffff;stroke-width:4.17250443"
     inkscape:connector-curvature="0" /><path
     id="path47"
     d="m 109.31881,95.13403 c -2.35961,0.77893 -4.30511,1.04126 -6.25061,1.04126 -4.443145,0 -6.945114,-2.34082 -6.945114,-6.88927 0,-0.77892 0.13804,-1.82018 0.27608,-2.72826 l 0.55647,-3.11974 0.418429,-2.46997 3.748645,-21.31353 h 8.61022 l -0.97059,4.67758 h 4.44315 l -1.11294,7.6682 h -4.44315 l -2.35962,12.99557 c -0.13804,0.52063 -0.13804,0.90808 -0.13804,1.29956 0,1.55785 0.83255,2.20763 2.91609,2.20763 0.97059,0 1.80746,0 2.35962,-0.2583 z"
     style="fill:#ffffff;stroke-width:4.17250443"
     inkscape:connector-curvature="0" /><path
     id="path49"
     d="m 75.844186,74.20793 c 0,3.89867 1.9455,6.62694 6.52669,8.70542 3.6106,1.55786 4.16708,2.07849 4.16708,3.37804 0,1.94934 -1.52707,2.85741 -4.99963,2.85741 -2.64001,0 -4.99962,-0.39148 -7.77767,-1.1704 l -1.25099,7.14756 0.41843,0.12915 1.52707,0.2583 c 0.55647,0.12914 1.25098,0.25829 2.35962,0.25829 1.94549,0.2583 3.6106,0.2583 4.72354,0.2583 9.1667,0 13.47181,-3.24889 13.47181,-10.39646 0,-4.29015 -1.80745,-6.75608 -6.11257,-8.70542 -3.74864,-1.55785 -4.16707,-1.94933 -4.16707,-3.37804 0,-1.69104 1.52706,-2.46996 4.30511,-2.46996 1.66511,0 4.02904,0.12914 6.25061,0.39148 l 1.25099,-7.14757 c -2.22158,-0.39148 -5.69414,-0.64978 -7.63964,-0.64978 -9.72317,0.008 -13.19573,4.81482 -13.05338,10.53368 z"
     style="fill:#ffffff;stroke-width:4.17250443"
     inkscape:connector-curvature="0" /><path
     id="path51"
     d="m 254.19581,95.52148 h -8.19611 l 0.41843,-2.9906 c -2.35962,2.34082 -4.86159,3.37804 -8.05807,3.37804 -6.38865,0 -10.55572,-5.06908 -10.55572,-12.86642 0,-10.39646 6.52669,-19.23506 14.17064,-19.23506 3.47256,0 5.97453,1.4287 8.33415,4.29015 l 1.94549,-10.91708 h 8.61023 z M 241.4185,88.24476 c 4.02904,0 6.80709,-4.4193 6.80709,-10.5256 0,-4.02782 -1.52707,-6.10631 -4.58551,-6.10631 -3.89099,0 -6.80708,4.29016 -6.80708,10.39646 0,4.15697 1.53138,6.23545 4.5855,6.23545 z"
     style="fill:#ffffff;stroke-width:4.17250443"
     inkscape:connector-curvature="0" /><path
     id="path53"
     d="m 135.99067,94.8717 c -3.05412,0.90807 -5.83217,1.29956 -9.02866,1.29956 -9.72317,0 -14.72279,-4.80675 -14.72279,-14.03684 0,-10.65475 6.38865,-18.58528 15.14123,-18.58528 7.2212,0 11.80671,4.4193 11.80671,11.30453 0,2.34082 -0.27608,4.54845 -1.11295,7.79735 h -17.22477 c -0.13804,0.39148 -0.13804,0.64978 -0.13804,0.90807 0,3.64038 2.64001,5.45653 7.63964,5.45653 3.19648,0 5.97453,-0.52063 9.02866,-1.94934 z m -4.86158,-18.58528 c 0,-0.64978 0,-1.17041 0,-1.55786 0,-2.59911 -1.52707,-4.02782 -4.16708,-4.02782 -2.77804,0 -4.72354,1.94934 -5.55609,5.58971 z"
     style="fill:#ffffff;stroke-width:4.17250443"
     inkscape:connector-curvature="0" /><path
     id="path55"
     d="m 42.645636,95.52148 h -8.61454 l 4.99963,-29.49834 -11.25024,29.49834 h -5.97453 l -0.6902,-29.24004 -5.28002,29.24004 H 7.7776656 L 14.584756,57.18455 h 12.50122 l 0.41843,23.7835 8.33415,-23.7835 h 13.60985 z"
     style="fill:#ffffff;stroke-width:4.17250443"
     inkscape:connector-curvature="0" /><path
     id="path57"
     d="m 64.175516,81.61783 c -0.83255,0 -1.25098,-0.12915 -1.94549,-0.12915 -4.86159,0 -7.36356,1.69104 -7.36356,4.80675 0,1.94933 1.11295,3.11974 3.05413,3.11974 3.61491,0 6.11688,-3.11974 6.25492,-7.79734 z m 6.38865,13.90365 h -7.2212 l 0.13804,-3.2489 c -2.22158,2.59912 -5.13766,3.76953 -9.1667,3.76953 -4.72354,0 -7.91571,-3.37804 -7.91571,-8.44712 0,-7.6682 5.5561,-12.0875 15.27927,-12.0875 0.97059,0 2.22157,0.12915 3.6106,0.2583 0.27608,-1.04126 0.27608,-1.42871 0.27608,-1.94934 0,-2.07848 -1.52707,-2.85741 -5.5561,-2.85741 -2.50197,0 -5.28002,0.2583 -7.2212,0.77893 l -1.25099,0.39148 -0.83255,0.12915 1.25099,-7.01842 c 4.30511,-1.17041 7.2212,-1.55785 10.41768,-1.55785 7.5016,0 11.53063,3.11974 11.53063,9.0969 0,1.55785 -0.13804,2.72826 -0.69451,6.23949 l -1.9455,11.04623 -0.27608,1.94934 -0.13804,1.55785 -0.13804,1.17041 z"
     style="fill:#ffffff;stroke-width:4.17250443"
     inkscape:connector-curvature="0" /><path
     id="path59"
     d="m 201.69326,81.61783 c -0.97059,0 -1.38902,-0.12915 -1.94549,-0.12915 -4.99963,0 -7.5016,1.69104 -7.5016,4.80675 0,1.94933 1.25099,3.11974 3.19648,3.11974 3.47256,0 6.10826,-3.11974 6.25061,-7.79734 z m 6.38865,13.90365 h -7.2212 l 0.13804,-3.2489 c -2.22158,2.59912 -5.13766,3.76953 -9.1667,3.76953 -4.72354,0 -7.91571,-3.37804 -7.91571,-8.44712 0,-7.6682 5.5561,-12.0875 15.27927,-12.0875 0.9749,0 2.22157,0.12915 3.47256,0.2583 0.27608,-1.04126 0.41843,-1.42871 0.41843,-1.94934 0,-2.07848 -1.52706,-2.85741 -5.5561,-2.85741 -2.50197,0 -5.41805,0.2583 -7.36355,0.77893 l -1.11295,0.39148 -0.83255,0.12915 1.25099,-7.01842 c 4.30511,-1.17041 7.2212,-1.55785 10.41768,-1.55785 7.5016,0 11.38828,3.11974 11.38828,9.0969 0,1.55785 0,2.72826 -0.69452,6.23949 l -1.80745,11.04623 -0.27608,1.94934 -0.27608,1.55785 -0.13804,1.17041 v 0.77893 z"
     style="fill:#ffffff;stroke-width:4.17250443"
     inkscape:connector-curvature="0" /><path
     id="path61"
     d="m 231.41925,64.07381 c -0.27608,0 -0.55647,0 -0.83255,0 -2.91609,0 -4.58551,1.29955 -7.2212,5.06908 l 0.83255,-4.80675 h -7.91571 l -5.28002,31.18937 h 8.61022 c 3.19649,-19.10591 4.02904,-22.35077 8.19611,-22.35077 0.27608,0 0.27608,0 0.55647,0 0.83256,-3.76952 1.9455,-6.49778 3.33453,-8.96775 z"
     style="fill:#ffffff;stroke-width:4.17250443"
     inkscape:connector-curvature="0" /></svg>