<?xml version="1.0" encoding="UTF-8" standalone="no"?><!DOCTYPE svg PUBLIC "-//W3C//DTD SVG 1.1//EN" "http://www.w3.org/Graphics/SVG/1.1/DTD/svg11.dtd"><svg xmlns="http://www.w3.org/2000/svg" xmlns:xlink="http://www.w3.org/1999/xlink"><symbol viewBox="0 0 810 130" id="arrow-long" xmlns="http://www.w3.org/2000/svg"><path d="M0 65V0h810v130H0zm742.405 33.758c57.79-27.079 57.588-26.958 57.588-34.258 0-7.183-.612-7.564-47.085-29.341C709.7 14.912 709.431 14.803 694.5 11.518c-25.726-5.66-28.797-5.727-15.376-.335 8 3.215 18.886 10.003 20.701 12.909 1.722 2.757.161 2.43-7.985-1.672-6.607-3.328-19.615-6.978-20.765-5.828-1.723 1.723 5.412 5.68 36.805 20.408l35.17 16.5-65.275.782c-36.592.439-119.104.336-187.775-.234-248.454-2.062-294.022-2.265-343.227-1.526-27.65.415-49.373 1.098-48.273 1.518 1.1.42 4.138 1.52 6.75 2.445 12.744 4.51.26 7.469-40.25 9.541-39.234 2.007-48.1 4.706-22.865 6.96 7.373.659 35.073.752 78.865.265 111.67-1.242 536.162-.546 582.276.955l39.777 1.294-35.195 16.504c-19.357 9.077-35.374 17.043-35.594 17.703-.244.732 1.864 1.84 5.419 2.848 8.923 2.532 10.52 3.842 9.742 7.992-.356 1.9-.26 3.457.214 3.461.473.004 25.118-11.358 54.766-25.25z" fill="#fefefe"/><path d="M687.425 120.547c.779-4.15-.819-5.46-9.742-7.992-3.555-1.008-5.663-2.116-5.419-2.848.22-.66 16.237-8.626 35.594-17.703L743.053 75.5l-39.777-1.294C657.162 72.705 232.67 72.009 121 73.25c-43.792.487-71.492.394-78.865-.265C16.9 70.732 25.766 68.033 65 66.026c40.51-2.072 52.994-5.032 40.25-9.541-2.612-.925-5.65-2.025-6.75-2.445-1.1-.42 20.623-1.103 48.273-1.518 49.205-.739 94.773-.536 343.227 1.526 68.67.57 151.183.673 187.775.234l65.275-.782L707.88 37c-31.393-14.728-38.528-18.685-36.805-20.408 1.15-1.15 14.158 2.5 20.765 5.828 8.146 4.102 9.707 4.429 7.985 1.672-1.815-2.906-12.7-9.694-20.7-12.909-13.422-5.392-10.351-5.325 15.375.335 14.93 3.285 15.2 3.394 58.408 23.641 46.473 21.777 47.085 22.158 47.085 29.341 0 7.3.202 7.18-57.588 34.258-29.648 13.892-54.293 25.254-54.766 25.25-.474-.004-.57-1.562-.214-3.461z" fill="#1555b7"/></symbol><symbol viewBox="0 0 512 512" id="close" xmlns="http://www.w3.org/2000/svg"><path d="M505.943 6.058c-8.077-8.077-21.172-8.077-29.249 0L6.058 476.693c-8.077 8.077-8.077 21.172 0 29.249A20.612 20.612 0 0 0 20.683 512a20.614 20.614 0 0 0 14.625-6.059L505.943 35.306c8.076-8.076 8.076-21.171 0-29.248z"/><path d="M505.942 476.694L35.306 6.059c-8.076-8.077-21.172-8.077-29.248 0-8.077 8.076-8.077 21.171 0 29.248l470.636 470.636a20.616 20.616 0 0 0 14.625 6.058 20.615 20.615 0 0 0 14.624-6.057c8.075-8.078 8.075-21.173-.001-29.25z"/></symbol><symbol viewBox="0 0 16.087 16.087" id="dialog-baloon" xmlns="http://www.w3.org/2000/svg"><path d="M6.5 3.478c-3.59 0-6.5 2.238-6.5 5 0 1.354.701 2.585 1.839 3.485-.066.918-.287 2.041-.927 2.646 1.274 0 2.576-.798 3.399-1.422.684.188 1.42.291 2.189.291 3.59 0 6.5-2.237 6.5-5 0-2.762-2.91-5-6.5-5z"/><path d="M15.14 8.965c.547-.731.86-1.581.86-2.487 0-2.762-2.91-5-6.5-5-1.58 0-3.028.434-4.154 1.154.53-.1 1.084-.154 1.654-.154 3.866 0 7 2.463 7 5.5 0 1.197-.485 2.306-1.312 3.207.821.624 2.125 1.424 3.399 1.424-.906-.86-.971-2.766-.947-3.644z"/></symbol><symbol viewBox="0 0 16 14" fill="#3d6899" id="favorite" xmlns="http://www.w3.org/2000/svg"><path d="M8 3.2C7.4-.3 3.2-.8 1.4 1c-1.9 1.9-1.9 4.8 0 6.7.5.5 5.5 5.3 5.5 5.3.5.6 1.6.6 2.1 0l5.5-5.3c2-1.9 2-4.8.1-6.7C12.8-.7 8.6-.3 8 3.2z"/></symbol><symbol viewBox="0 0 24 18" id="filter-btn" xmlns="http://www.w3.org/2000/svg"><path d="M19.9 3c-.4-1.7-2-3-3.9-3s-3.4 1.3-3.9 3H0v2h12.1c.4 1.7 2 3 3.9 3s3.4-1.3 3.9-3H24V3zM18 4c0 .4-.1.7-.3 1-.3.6-1 1-1.7 1s-1.4-.4-1.7-1c-.2-.3-.3-.6-.3-1s.1-.7.3-1c.3-.6 1-1 1.7-1s1.4.4 1.7 1c.2.3.3.6.3 1zM4.1 15c.4 1.7 2 3 3.9 3s3.4-1.3 3.9-3H24v-2H11.9c-.4-1.7-2-3-3.9-3s-3.4 1.3-3.9 3H0v2zM6 14c0-.4.1-.7.3-1 .3-.6 1-1 1.7-1s1.4.4 1.7 1c.2.3.3.6.3 1s-.1.7-.3 1c-.3.6-1 1-1.7 1s-1.4-.4-1.7-1c-.2-.3-.3-.6-.3-1z"/></symbol><symbol viewBox="0 0 50 50" id="like" xmlns="http://www.w3.org/2000/svg"><path d="M24.85 10.126c2.018-4.783 6.628-8.125 11.99-8.125 7.223 0 12.425 6.179 13.079 13.543 0 0 .353 1.828-.424 5.119-1.058 4.482-3.545 8.464-6.898 11.503L24.85 48 7.402 32.165c-3.353-3.038-5.84-7.021-6.898-11.503-.777-3.291-.424-5.119-.424-5.119C.734 8.179 5.936 2 13.159 2c5.363 0 9.673 3.343 11.691 8.126z"/></symbol><symbol viewBox="65 620.989 32.595 45" id="map-pin" xmlns="http://www.w3.org/2000/svg"><g data-name="Group 29" transform="translate(-5.573 620.989)"><path data-name="Path 183" class="gcls-1" d="M86.87 0a16.316 16.316 0 0 0-16.3 16.3c0 11.152 14.585 27.524 15.205 28.216a1.468 1.468 0 0 0 2.184 0c.621-.692 15.205-17.064 15.205-28.216A16.316 16.316 0 0 0 86.87 0zm0 24.5a8.2 8.2 0 1 1 8.2-8.2 8.209 8.209 0 0 1-8.2 8.2z"/></g></symbol><symbol viewBox="0 0 491.858 491.858" id="minus-bold" xmlns="http://www.w3.org/2000/svg"><path d="M465.167 211.613H26.69c-8.424 0-26.69 11.439-26.69 34.316s18.267 34.316 26.69 34.316H465.169c8.421 0 26.689-11.439 26.689-34.316s-18.268-34.316-26.691-34.316z"/></symbol><symbol id="pay-method" viewBox="0 0 983.65759 154.10873" xmlns="http://www.w3.org/2000/svg"><style id="istyle3">.ist0,.ist1{fill-rule:evenodd;clip-rule:evenodd;fill:#4db45e}.ist1{fill:url(#iSVGID_1_)}</style><g transform="matrix(.46316 0 0 .4236 606.963 25.654)" id="ig5"><path class="ist0" d="M218 0v.1c-.1 0-31.6-.1-40 30-7.7 27.6-29.4 103.8-30 105.9h-6s-22.2-77.9-30-106C103.6-.1 72 0 72 0H0v229h72V93h6l42 136h50l42-135.9h6V229h72V0z" id="ipath7" clip-rule="evenodd" fill="#4db45e" fill-rule="evenodd"/></g><g transform="matrix(.46316 0 0 .4236 606.963 25.654)" id="ig9"><path class="ist0" d="M481 0s-21.1 1.9-31 24l-51 112h-6V0h-72v229h68s22.1-2 32-24l50-112h6v136h72V0z" id="ipath11" clip-rule="evenodd" fill="#4db45e" fill-rule="evenodd"/></g><g transform="matrix(.46316 0 0 .4236 606.963 25.654)" id="ig13"><path class="ist0" d="M581 104v125h72v-73h78c34 0 62.8-21.7 73.5-52z" id="ipath15" clip-rule="evenodd" fill="#4db45e" fill-rule="evenodd"/></g><g transform="matrix(.46316 0 0 .4236 608.963 25.654)" id="ig17"><linearGradient id="iSVGID_1_" gradientUnits="userSpaceOnUse" x1="570.919" y1="47" x2="809" y2="47"><stop offset=".3" id="istop20" stop-color="#00b4e6"/><stop offset="1" id="istop22" stop-color="#088ccb"/></linearGradient><path class="ist1" d="M731 0H570.9c8 43.6 40.7 78.6 83 90 9.6 2.6 19.7 4 30.1 4h123.4c1.1-5.2 1.6-10.5 1.6-16 0-43.1-34.9-78-78-78z" id="ipath24" clip-rule="evenodd" fill="url(#iSVGID_1_)" fill-rule="evenodd"/></g><path id="ipath3" d="M553.593 154.109H315.047V1.278h242.67v152.83z" fill="#3f5d92" stroke-width="4.173"/><path id="ipath5" d="M553.593 150.25H319.171V5.136h234.422z" fill="#fff" stroke-width="4.173"/><path id="ipath7-5" d="M403.898 101.263l15.223-46.97h13.584l-15.223 46.97z" fill="#3f5d92" stroke-width="4.173"/><path id="ipath9" d="M397.824 54.31l-12.221 19.908c-3.11 5.215-4.93 7.85-5.802 11.143h-.185c.215-4.177-.406-9.306-.466-12.204l-1.35-18.848h-22.868l-.233 1.263c5.876 0 9.357 2.761 10.319 8.411l4.456 37.28h14.071l28.458-46.954z" fill="#3f5d92" stroke-width="4.173"/><path id="ipath11-0" d="M503.463 101.263l-.375-6.986-16.962-.012-3.468 6.998h-14.749l26.741-46.877h18.105l4.53 46.877zm-1.557-27.707c-.151-3.47-.276-8.18-.026-11.034h-.199c-.828 2.333-4.378 9.331-5.94 12.778l-5.055 10.295h11.91z" fill="#3f5d92" stroke-width="4.173"/><path id="ipath13" d="M446.966 102.595c-9.59 0-15.957-2.846-20.499-5.384l6.47-9.247c4.081 2.135 7.282 4.597 14.654 4.597 2.369 0 4.65-.577 5.95-2.675 1.889-3.056-.437-4.698-5.742-7.511l-2.619-1.594c-7.868-5.03-11.267-9.808-7.566-18.142 2.368-5.335 8.619-9.375 18.928-9.375 7.11 0 13.774 2.877 17.66 5.69l-7.436 8.161c-3.792-2.87-6.932-4.318-10.53-4.318-2.868 0-5.047 1.033-5.797 2.43-1.415 2.623.457 4.41 4.59 6.812l3.114 1.856c9.55 5.634 11.824 11.547 9.434 17.068-4.115 9.509-12.178 11.632-20.611 11.632z" fill="#3f5d92" stroke-width="4.173"/><path id="ipath15-4" d="M521.322 60.662h-.587v-3.35h1.36c.866 0 1.306.282 1.306.964 0 .606-.397.86-.936.917l1 1.473h-.663l-.928-1.433h-.552zm.66-1.905c.44 0 .828-.04.828-.525 0-.404-.423-.452-.776-.452h-.712v.98h.66zm-.017 3.2c-1.86 0-3.184-1.303-3.184-3.027 0-1.82 1.471-3.027 3.184-3.027 1.695 0 3.166 1.207 3.166 3.027s-1.471 3.027-3.166 3.027zm0-5.529c-1.402 0-2.49 1.03-2.49 2.502 0 1.377.954 2.503 2.49 2.503 1.384 0 2.476-1.022 2.476-2.503-.004-1.473-1.092-2.502-2.476-2.502z" fill="#3f5d92" stroke-width="4.173"/><path id="ipath17" d="M547.821 115.844H325.357v27.848h222.464z" fill="#e6a149" stroke-width="4.173"/><path id="ipath19" d="M547.411 12.078H324.943v27.847h222.468z" fill="#3f5d92" stroke-width="4.173"/><path id="ipath21" d="M134.46 131.78c14.17 12.217 33.198 19.622 53.895 19.622 44.449 0 80.426-33.917 80.426-75.636C268.78 33.918 232.804 0 188.355 0c-20.697 0-39.725 7.406-53.896 19.622-16.254 13.904-26.53 33.918-26.53 56.144 0 22.225 10.28 42.24 26.53 56.014z" fill="#eaa94d" stroke-width="4.173"/><path id="ipath23" d="M160.437 67.71c-.276-2.728-.833-5.327-1.39-8.055h-49.172c.557-2.729 1.39-5.328 2.222-7.927h44.591c-.975-2.728-2.084-5.457-3.335-8.056H115.57c1.39-2.728 2.917-5.456 4.586-8.055h28.475a68.857 68.857 0 0 0-6.113-7.927h-16.254a77.41 77.41 0 0 1 8.196-8.055C120.151 7.547 101.261.012 80.425.012 36.115.012 0 33.93 0 75.778c0 41.715 36.115 75.637 80.425 75.637 20.836 0 39.726-7.406 54.034-19.623a75.267 75.267 0 0 0 8.058-7.926h-16.254c-2.221-2.6-4.167-5.199-6.112-8.056h28.475a59.222 59.222 0 0 0 4.723-8.056h-37.784c-1.25-2.599-2.502-5.198-3.472-7.926h44.59c.971-2.6 1.666-5.328 2.36-8.056.557-2.599 1.113-5.327 1.39-8.056.275-2.599.418-5.198.418-7.926a75.915 75.915 0 0 0-.414-8.08z" fill="#d24a48" stroke-width="4.173"/><path id="ipath25" d="M258.087 93.314c0-1.429 1.113-2.47 2.502-2.47 1.527 0 2.64 1.041 2.64 2.47 0 1.3-1.113 2.47-2.64 2.47-1.39 0-2.502-1.17-2.502-2.47zm2.502 1.82c1.113 0 2.083-.779 2.083-1.82s-.97-1.82-2.083-1.82c-.97 0-1.946.779-1.946 1.82s.97 1.82 1.946 1.82zm-.28-.783h-.557v-2.078H261.279c.276.129.276.391.276.65 0 .129-.138.39-.418.52l.556.908H261l-.277-.779h-.418v.78-1.171h.276c.138 0 .276 0 .276-.13.138 0 .138-.129.138-.258 0 0 0-.129-.138-.129 0-.13-.138 0-.276 0h-.276v1.687z" fill="#fff" stroke-width="4.173"/><path id="ipath27" d="M107.097 97.6c-2.64.65-4.585 1.041-6.526 1.041-4.168 0-6.67-2.47-6.67-6.89 0-.907.139-1.82.277-2.86l.556-2.991.418-2.47 3.75-21.314h8.333l-.97 4.678h5.28l-1.251 7.797h-5.28l-2.222 12.738c-.138.65-.138 1.04-.138 1.3 0 1.69.833 2.34 2.916 2.34.97 0 1.808-.13 2.64-.258z" fill="#2f3c6a" stroke-width="4.173"/><path id="ipath29" d="M134.045 97.342c-3.054.779-5.832 1.17-8.89 1.17-9.448 0-14.861-4.678-14.861-13.904 0-10.788 6.388-18.585 15.279-18.585 7.083 0 11.669 4.42 11.669 11.305 0 2.34-.276 4.548-.97 7.668h-17.364c-.138.52-.138.779-.138 1.041 0 3.64 2.64 5.457 7.64 5.457 3.196 0 5.974-.65 9.029-1.95zm-5.142-18.586V77.2c0-2.6-1.527-4.028-4.167-4.028-2.778 0-4.723 1.949-5.556 5.59z" fill="#2f3c6a" stroke-width="4.173"/><path id="ipath31" d="M40.42 97.991h-8.61l5-29.502-11.251 29.502h-5.975l-.694-29.369-5.276 29.37H5.138l6.807-38.337h12.643l.276 23.65 8.473-23.65h13.89z" fill="#2f3c6a" stroke-width="4.173"/><path id="ipath33" d="M61.397 84.084c-.832-.13-1.112-.13-1.665-.13-5 0-7.501 1.82-7.501 4.678 0 1.95 1.25 3.25 3.196 3.25 4.163 0 5.832-3.25 5.97-7.798zm6.946 13.907H60.84l.138-3.248c-1.945 2.47-4.585 3.77-9.167 3.77-4.167 0-7.777-3.508-7.777-8.577 0-1.429.276-2.728.694-4.028 1.39-4.807 6.527-7.797 14.447-7.927.97 0 2.502 0 3.89.13.277-1.042.277-1.43.277-2.079 0-2.078-1.807-2.728-5.832-2.728-2.502 0-5.28.391-7.221 1.041l-1.251.258-.557.13 1.251-7.019c4.03-1.17 6.945-1.69 10.142-1.69 7.501 0 11.53 3.248 11.53 9.225 0 1.558.138 2.728-.418 6.106L69.04 92.531l-.276 1.95-.138 1.557-.138 1.041z" fill="#2f3c6a" stroke-width="4.173"/><path id="ipath35" d="M175.992 67.06c2.502 0 4.724.65 7.778 2.079l1.527-8.318c-.833-.392-1.113-.392-2.222-.779l-3.472-.908c-1.113-.258-2.502-.392-4.03-.392-4.305 0-6.807.13-9.447 1.558-1.389.908-3.196 2.079-5.137 4.157l-1.113-.258-8.89 5.848.418-3.249h-9.167l-5.418 31.19h8.752l3.197-16.766s1.251-2.34 1.807-3.12c1.666-1.949 3.055-1.949 4.862-1.949h.695c-.277 1.82-.419 3.77-.419 5.977 0 10.139 6.113 16.503 15.555 16.503 2.36 0 4.444-.258 7.64-1.041l1.527-8.839c-2.778 1.429-5.28 2.079-7.363 2.079-5.138 0-8.197-3.64-8.197-9.355.004-8.44 4.59-14.417 11.117-14.417z" fill="#2f3c6a" stroke-width="4.173"/><path id="ipath37" d="M249.753 59.655l-1.946 10.917c-2.083-2.991-4.585-4.42-7.916-4.42-4.585 0-8.89 2.47-11.53 7.148v-.13l-5.556-3.119.556-3.249h-9.309l-5.28 31.19h8.61l2.916-16.766s2.222-2.34 2.778-3.12c1.39-1.557 2.779-1.82 3.891-1.949-.97 2.6-1.527 5.72-1.527 9.226 0 7.798 4.306 12.996 10.694 12.996 3.197 0 5.694-1.041 8.058-3.507l-.418 3.12h8.196l6.669-38.337zm-10.694 30.927c-2.916 0-4.443-2.079-4.443-6.107 0-6.106 2.778-10.525 6.807-10.525 3.054 0 4.585 2.207 4.585 6.106-.004 6.24-2.782 10.526-6.95 10.526z" fill="#2f3c6a" stroke-width="4.173"/><path id="ipath39" d="M198.915 84.084c-.832-.13-1.113-.13-1.665-.13-5 0-7.501 1.82-7.501 4.678 0 1.95 1.25 3.25 3.196 3.25 4.163 0 5.828-3.25 5.97-7.798zm6.945 13.907h-7.64l.277-3.248c-1.946 2.47-4.586 3.77-9.167 3.77-4.305 0-8.058-3.379-8.058-8.577 0-7.406 5.975-11.955 15.417-11.955.97 0 2.502 0 3.749.13.276-1.042.418-1.43.418-2.079 0-2.078-1.807-2.728-5.974-2.728-2.36 0-5.28.391-7.221 1.041l-1.67.388 1.251-7.019c4.03-1.17 6.945-1.69 10.142-1.69 7.501 0 11.388 3.248 11.388 9.225 0 1.558.276 2.728-.418 6.106l-1.808 11.176-.276 1.95-.276 1.557-.138 1.041v.912z" fill="#2f3c6a" stroke-width="4.173"/><path id="ipath41" d="M86.538 73.429c1.665 0 4.029.13 6.527.52l1.25-7.276c-2.501-.258-5.836-.65-7.777-.65-9.723 0-12.92 4.94-12.92 10.655 0 3.77 1.808 6.498 6.527 8.576 3.473 1.558 4.029 1.82 4.029 3.25 0 1.948-1.807 3.119-5.138 3.119-2.64 0-5.137-.392-7.915-1.3l-.97 7.148.137.129 1.665.258c.557.13 1.251.259 2.222.392 2.083.129 3.89.258 5 .258 9.723 0 13.752-3.507 13.752-10.396 0-4.29-2.222-6.89-6.527-8.706-3.749-1.558-4.167-1.82-4.167-3.249 0-1.428 1.665-2.728 4.305-2.728z" fill="#2f3c6a" stroke-width="4.173"/><path id="ipath43" d="M187.66 58.355l-1.526 8.318c-3.055-1.429-5.28-2.079-7.778-2.079-6.527 0-11.112 5.978-11.112 14.425 0 5.848 3.054 9.355 8.196 9.355 2.083 0 4.585-.65 7.363-1.95l-1.527 8.706c-3.196.779-5.28 1.17-7.64 1.17-9.446 0-15.279-6.368-15.279-16.636 0-13.645 8.058-23.262 19.585-23.262 1.527 0 2.916.129 4.029.391l3.472.779c1.109.391 1.385.52 2.218.783z" fill="#fff" stroke-width="4.173"/><path id="ipath45" d="M159.604 64.074h-.832c-2.917 0-4.586 1.3-7.222 5.069l.833-4.807h-7.92l-5.418 31.19h8.752c3.197-19.106 4.03-22.351 8.196-22.351h.557c.833-3.77 1.945-6.498 3.334-8.968z" fill="#fff" stroke-width="4.173"/><path id="ipath47" d="M109.319 95.134c-2.36.779-4.305 1.041-6.25 1.041-4.444 0-6.946-2.34-6.946-6.889 0-.779.138-1.82.276-2.728l.557-3.12.418-2.47 3.749-21.313h8.61l-.97 4.677h4.442L112.093 72h-4.444l-2.36 12.996c-.137.52-.137.908-.137 1.3 0 1.557.832 2.207 2.916 2.207.97 0 1.807 0 2.36-.258z" fill="#fff" stroke-width="4.173"/><path id="ipath49" d="M75.844 74.208c0 3.899 1.946 6.627 6.527 8.705 3.61 1.558 4.167 2.079 4.167 3.378 0 1.95-1.527 2.858-5 2.858-2.64 0-5-.392-7.777-1.17l-1.251 7.147.418.13 1.527.257c.557.13 1.251.259 2.36.259 1.945.258 3.61.258 4.723.258 9.167 0 13.472-3.249 13.472-10.396 0-4.29-1.807-6.757-6.112-8.706-3.75-1.558-4.168-1.95-4.168-3.378 0-1.691 1.528-2.47 4.306-2.47 1.665 0 4.029.13 6.25.392l1.251-7.148c-2.221-.391-5.694-.65-7.64-.65-9.723.008-13.195 4.815-13.053 10.534z" fill="#fff" stroke-width="4.173"/><path id="ipath51" d="M254.196 95.521H246l.418-2.99c-2.36 2.34-4.861 3.378-8.058 3.378-6.389 0-10.556-5.07-10.556-12.867 0-10.396 6.527-19.235 14.171-19.235 3.473 0 5.975 1.43 8.334 4.29l1.946-10.916h8.61zm-12.778-7.276c4.03 0 6.808-4.42 6.808-10.526 0-4.028-1.527-6.106-4.586-6.106-3.89 0-6.807 4.29-6.807 10.396 0 4.157 1.531 6.236 4.585 6.236z" fill="#fff" stroke-width="4.173"/><path id="ipath53" d="M135.99 94.872c-3.053.908-5.832 1.3-9.028 1.3-9.723 0-14.723-4.807-14.723-14.038 0-10.654 6.389-18.585 15.141-18.585 7.222 0 11.807 4.42 11.807 11.305 0 2.34-.276 4.548-1.113 7.797H120.85c-.138.392-.138.65-.138.908 0 3.64 2.64 5.457 7.64 5.457 3.197 0 5.975-.521 9.029-1.95zm-4.86-18.586V74.73c0-2.6-1.528-4.028-4.168-4.028-2.778 0-4.724 1.95-5.556 5.59z" fill="#fff" stroke-width="4.173"/><path id="ipath55" d="M42.646 95.521H34.03l5-29.498-11.25 29.498h-5.975l-.69-29.24-5.28 29.24H7.778l6.807-38.336h12.501l.418 23.783 8.335-23.783h13.61z" fill="#fff" stroke-width="4.173"/><path id="ipath57" d="M64.176 81.618c-.833 0-1.251-.13-1.946-.13-4.862 0-7.364 1.692-7.364 4.807 0 1.95 1.113 3.12 3.055 3.12 3.615 0 6.116-3.12 6.255-7.797zm6.388 13.903h-7.221l.138-3.248c-2.222 2.599-5.138 3.77-9.167 3.77-4.723 0-7.915-3.379-7.915-8.448 0-7.668 5.556-12.088 15.279-12.088.97 0 2.221.13 3.61.259.277-1.041.277-1.429.277-1.95 0-2.078-1.528-2.857-5.557-2.857-2.502 0-5.28.258-7.22.779l-1.252.391-.832.13 1.25-7.019c4.306-1.17 7.222-1.558 10.418-1.558 7.502 0 11.531 3.12 11.531 9.097 0 1.558-.138 2.728-.695 6.24l-1.945 11.046-.276 1.95-.138 1.557-.138 1.17z" fill="#fff" stroke-width="4.173"/><path id="ipath59" d="M201.693 81.618c-.97 0-1.389-.13-1.945-.13-5 0-7.502 1.692-7.502 4.807 0 1.95 1.251 3.12 3.197 3.12 3.472 0 6.108-3.12 6.25-7.797zm6.389 13.903h-7.221l.138-3.248c-2.222 2.599-5.138 3.77-9.167 3.77-4.723 0-7.916-3.379-7.916-8.448 0-7.668 5.556-12.088 15.28-12.088.975 0 2.221.13 3.472.259.276-1.041.419-1.429.419-1.95 0-2.078-1.527-2.857-5.556-2.857-2.502 0-5.419.258-7.364.779l-1.113.391-.833.13 1.251-7.019c4.306-1.17 7.222-1.558 10.418-1.558 7.502 0 11.388 3.12 11.388 9.097 0 1.558 0 2.728-.694 6.24l-1.808 11.046-.276 1.95-.276 1.557-.138 1.17v.78z" fill="#fff" stroke-width="4.173"/><path id="ipath61" d="M231.42 64.074h-.833c-2.916 0-4.586 1.3-7.221 5.069l.832-4.807h-7.916l-5.28 31.19h8.61c3.197-19.106 4.03-22.351 8.197-22.351h.556c.833-3.77 1.946-6.498 3.335-8.968z" fill="#fff" stroke-width="4.173"/></symbol><symbol viewBox="0 0 210 89" id="pay-qiwi" xmlns="http://www.w3.org/2000/svg"><path d="M94.61 67.423c-1.3-2.65-3.611-4.599-6.115-6.088-.868-.518-1.849-.885-2.702-1.163-1.965-.636-3.868-.784-6.082-1.162-1.804-.309-3.228-1.05-4.754-2.086-.797-.543-1.448-1.289-1.99-2.082-.101-.158-.611-.776-.558-.989 0 0-.355 1.418.347 3.408-6.448-.292-12.101-3.865-14.691-8.199-4.766-7.976-3.086-17.642 3.268-21.912s16.04-1.26 21.227 6.451c3.254 4.837 4.086 10.467 2.692 15.042-.01.036-.022.07-.033.106-2.756-2.003-5.273-.983-5.273-.983 2.763-.285 4.945 1.914 4.945 1.914.321.284.628.599.909.948.064.087.127.173.19.265a7.548 7.548 0 0 1 1.365 3.181c5.484-6.955 6.39-16.587 1.537-24.068-6.18-9.537-19.355-11.971-29.42-5.446C49.4 31.091 46.25 44.105 52.431 53.64c5.078 7.843 16.991 10.235 23.822 8.076 2.583-.814 11.424-1.587 17.576 5.682 0 0 .532.609.821 1.302 0 0 .086.244.313.126.062-.033.233-.23-.353-1.403zM81.941 54.55c-.006-.006-.012-.006-.02-.011-.014 0-.026-.006-.033-.007-.016-.007-.029-.013-.043-.016-.01 0-.022 0-.026-.006l-.068-.019a1.1 1.1 0 0 0-.806.142c-.532.364-.614 1.184-.177 1.839a1.672 1.672 0 0 0 .825.632c.014.004.029.004.041.009.013 0 .017.005.026.01.022.003.042.014.065.015.284.057.569.014.807-.144.535-.364.617-1.179.18-1.832a1.567 1.567 0 0 0-.771-.612zm3.57-1.508c-.452-.169-.492.366-.378.714.252.812.594 1.433.842 1.559.241.145.523-.189.342-1.004-.076-.352-.346-1.089-.806-1.269z" fill="#F90"/><path d="M136.209 34.548h-1.388c-.283 0-.388.078-.467.408l-2.368 9.338-2.896-9.279c-.121-.388-.141-.424-.282-.466h-.776c-.224 0-.267.118-.368.408l-2.85 9.338-2.351-9.299c-.1-.431-.188-.446-.53-.446h-1.914c-.205 0-.392.062-.392.305 0 .078 0 .103.064.324l3.814 13.379c.103.325.209.38.576.38.302 0 .853 0 .913-.018.201-.019.244-.081.348-.382l2.731-8.692 2.915 8.712c.101.308.164.362.365.38h1.006c.282 0 .343-.073.446-.401l3.756-13.359c.037-.203.056-.286.056-.366-.003-.264-.184-.264-.408-.264zm-26.613 17.965c-1.222-.328-3.749-1.208-4.422-3.509 3.647-1.366 4.525-4.893 4.525-7.319 0-4.403-2.612-7.469-6.465-7.469-3.549 0-6.524 2.574-6.524 7.625 0 3.31 1.53 6.715 5.568 7.367 1.671 3.931 7.013 4.548 7.421 4.548.572 0 .711-.37.711-.595 0-.446-.304-.528-.814-.648zm-6.401-4.934c-.266 0-1.693 0-2.715-1.693-.731-1.246-.895-2.939-.895-4.201 0-1.368.184-2.995.895-4.141.698-1.079 1.753-1.611 2.736-1.611.464 0 1.714.122 2.633 1.549.855 1.327.975 3.142.975 4.121.022 1.197-.103 2.912-.797 4.159-.731 1.281-1.836 1.817-2.832 1.817zm12.6-13.031h-1.94c-.365 0-.405.142-.423.426v13.515c0 .375.162.43.444.448h1.899c.266 0 .445-.056.445-.448V34.974c.002-.364-.117-.426-.425-.426zm26.611 0h-1.939c-.367 0-.409.142-.425.426v13.515c0 .375.162.43.445.448h1.9c.265 0 .446-.056.446-.448V34.974c0-.364-.125-.426-.427-.426z" fill="#2166BA"/><path d="M115.238 51.516v2.329h.207l1.729-2.329h1.684l-2.237 2.467c.773.115 1.245.727 1.626 1.626.173.415.38 1.038.634 1.522h-1.476c-.15-.242-.311-.657-.519-1.199-.3-.761-.727-1.13-1.465-1.13h-.184v2.329h-1.418v-5.615h1.419z" fill="#F90"/><path d="M124.347 54.272c0 2.064-1.453 2.987-2.883 2.987-1.591 0-2.813-1.095-2.813-2.894 0-1.845 1.211-2.975 2.906-2.975 1.672-.001 2.79 1.175 2.79 2.882zm-4.231.057c0 1.084.531 1.903 1.395 1.903.807 0 1.372-.796 1.372-1.926 0-.876-.392-1.879-1.361-1.879-1.003 0-1.406.969-1.406 1.902zM126.331 51.516v4.52h1.637v-4.52h1.407v4.52h1.638v-4.52h1.395v5.615h-7.484v-5.615h1.407zM134.345 54.721c.035 1.015.83 1.453 1.729 1.453.657 0 1.13-.092 1.557-.254l.207.98a5.265 5.265 0 0 1-1.96.357c-1.822 0-2.894-1.13-2.894-2.848 0-1.557.945-3.021 2.744-3.021 1.833 0 2.421 1.499 2.421 2.733 0 .265-.023.473-.046.599l-3.758.001zm2.468-.991c.012-.519-.219-1.372-1.164-1.372-.876 0-1.245.796-1.303 1.372h2.467zM143.374 51.516v5.615h-1.43v-4.52h-1.522v1.211c0 1.465-.161 2.456-.83 2.952-.323.311-.738.461-1.407.461l-.15-1.107c.242-.046.461-.138.599-.277.415-.346.461-.992.461-2.076v-2.26l4.279.001zM145.3 54.721c.035 1.015.83 1.453 1.73 1.453.657 0 1.13-.092 1.557-.254l.207.98a5.265 5.265 0 0 1-1.96.357c-1.822 0-2.894-1.13-2.894-2.848 0-1.557.946-3.021 2.744-3.021 1.833 0 2.422 1.499 2.422 2.733 0 .265-.023.473-.046.599l-3.76.001zm2.467-.991c.012-.519-.219-1.372-1.164-1.372-.876 0-1.245.796-1.303 1.372h2.467zM151.089 51.516v2.329h.207l1.729-2.329h1.684l-2.237 2.467c.773.115 1.245.727 1.626 1.626.173.415.38 1.038.634 1.522h-1.476c-.15-.242-.311-.657-.518-1.199-.3-.761-.727-1.13-1.465-1.13h-.184v2.329h-1.418v-5.615h1.418z" fill="#F90"/></symbol><symbol viewBox="0 0 210 89" id="pay-sber" xmlns="http://www.w3.org/2000/svg"><path fill="#299E30" d="M87.096 35.761c0-3.943 2.323-6.507 6.487-6.507 1.866 0 2.979.354 3.768.726l-.556 1.449c-1.005-.319-1.742-.548-3.176-.548-2.549-.017-4.549 1.363-4.549 4.704 0 3.411 2.072 4.897 4.89 4.897 1.202 0 2.117-.176 2.96-.442l.448 1.485c-.951.355-1.956.62-3.714.62-4.325-.001-6.558-2.548-6.558-6.384M105.807 37.174c0-1.538-.664-2.722-2.441-2.722-1.131 0-2.028.389-2.907.831-.018.319-.036.778-.036 1.096 0 2.882.878 4.226 2.673 4.226 2.118 0 2.711-1.769 2.711-3.431m-7.196-.635c0-1.98.377-5.092 1.507-6.135.987-.919 3.625-1.538 6.694-2.104l.305 1.661c-2.728.46-5.151.884-5.743 1.45-.52.494-.754 1.627-.861 2.475.826-.442 1.956-.866 3.337-.866 2.351 0 3.84 1.15 3.84 4.084 0 3.447-2.028 4.986-4.737 4.986-2.691 0-4.342-1.662-4.342-5.551M115.62 36.255c0-1.715-.628-2.828-2.064-2.828-1.291 0-2.261.937-2.387 2.828h4.451zm-6.389 1.027c0-3.819 1.975-5.251 4.432-5.251 2.745 0 3.894 1.715 3.894 4.862v.654h-6.442c.018 2.545 1.489 3.059 3.212 3.059.933 0 1.723-.141 2.693-.424l.322 1.432c-.861.319-2.028.531-3.302.531-2.924-.001-4.809-1.134-4.809-4.863M126.121 36.945c0-1.75-.628-3.325-2.512-3.325-1.022 0-1.794.461-2.296.726v6.117c.233.036 1.005.177 1.668.177 2.243 0 3.14-1.539 3.14-3.695m-6.674-4.668h1.866v.76c.843-.583 1.615-.99 2.817-.99 2.315 0 3.894 1.591 3.894 4.809 0 3.943-2.369 5.269-5.006 5.269-.61 0-1.274-.088-1.705-.141v3.836h-1.866V32.277zM136.84 37.174c0-1.538-.664-2.722-2.44-2.722-1.131 0-2.028.389-2.907.831-.017.319-.035.778-.035 1.096 0 2.882.878 4.226 2.673 4.226 2.117 0 2.709-1.769 2.709-3.431m-7.196-.635c0-1.98.377-5.092 1.507-6.135.987-.919 3.625-1.538 6.694-2.104l.305 1.661c-2.728.46-5.151.884-5.743 1.45-.52.494-.754 1.627-.861 2.475.825-.442 1.956-.866 3.337-.866 2.351 0 3.84 1.15 3.84 4.084 0 3.447-2.028 4.986-4.738 4.986-2.691 0-4.341-1.662-4.341-5.551M145.959 39.756v-2.227l-2.082.089c-1.345.036-2.116.601-2.116 1.591 0 .971.717 1.414 1.668 1.414.879 0 1.831-.425 2.53-.867m-6.028-.425c0-2.44 2.189-2.934 3.893-2.952l2.135-.036V35.3c0-1.326-.68-1.68-2.117-1.68-1.04 0-1.901.177-2.745.461l-.394-1.397c.915-.371 2.009-.654 3.445-.654 2.35 0 3.643.813 3.643 2.776v5.038c0 .602.52.726 1.022.743l-.149 1.415c-.124.017-.245.036-.372.036-1.005 0-1.992-.301-2.17-1.166-.611.459-1.616 1.219-3.176 1.219-1.812-.001-3.015-.974-3.015-2.76M150.416 32.277h1.884v4.085h4.611v-4.085h1.884v9.654h-1.884v-4.102H152.3v4.102h-1.884zM165.849 40.268l-2.787-3.288 3.899-4.703h2.116l-3.989 4.561 1.943 2.122c.863.972 1.652 1.538 2.441 1.75l-.324 1.379c-.913-.052-2.01-.264-3.299-1.821m-4.744-7.991h1.884v9.653h-1.884v-9.653z"/><path fill="#F59624" d="M97.789 53.357c0-2.776-1.39-4.88-4.351-4.88-3.087 0-4.404 2.104-4.404 4.844 0 2.67 1.264 4.95 4.279 4.95 3.212.002 4.476-2.139 4.476-4.914m-10.693-.017c0-3.925 2.431-6.4 6.451-6.4 4.234 0 6.198 2.758 6.198 6.436 0 3.872-2.287 6.453-6.486 6.453-4.092-.001-6.163-2.618-6.163-6.489M101.854 49.963h1.884v4.083h4.611v-4.083h1.885v9.653h-1.885v-4.102h-4.611v4.102h-1.884zM111.423 58.361c.664-.248 1.454-.636 1.884-1.415.538-.991.879-3.66.987-6.983h6.299v9.653h-1.866v-8.204h-2.781c-.27 3.359-.611 5.41-1.257 6.596-.556.954-1.453 1.555-2.71 1.91l-.556-1.557zM128.386 57.441v-2.228l-2.082.089c-1.345.035-2.117.6-2.117 1.591 0 .971.719 1.414 1.669 1.414.878.001 1.829-.424 2.53-.866m-6.029-.424c0-2.44 2.189-2.935 3.893-2.952l2.136-.036v-1.042c0-1.326-.682-1.68-2.117-1.68a8.31 8.31 0 0 0-2.746.46l-.394-1.396c.915-.372 2.009-.654 3.445-.654 2.35 0 3.643.813 3.643 2.775v5.039c0 .601.52.726 1.022.743l-.148 1.415c-.126.017-.247.035-.372.035-1.005 0-1.992-.3-2.171-1.166-.611.459-1.616 1.22-3.176 1.22-1.813-.003-3.015-.975-3.015-2.761M134.372 46.675l.807-.885c.682.796 1.418 1.061 2.117 1.061.718 0 1.436-.265 2.137-1.061l.789.885a3.414 3.414 0 0 1-2.926 1.626 3.435 3.435 0 0 1-2.924-1.626m-1.455 3.288h1.885v5.905l-.055 1.291.843-1.308 4.181-5.887h1.884v9.653h-1.884v-5.87l.053-1.326-.843 1.343-4.181 5.853h-1.885l.002-9.654zM144.138 49.963h1.884v4.083h4.612v-4.083h1.883v9.653h-1.883v-4.102h-4.612v4.102h-1.884z"/><path fill="#299E30" d="M52.124 37.235l17.116-9.698a18.921 18.921 0 0 0-2.23-1.101L52.124 34.87l-6.629-3.756a19.288 19.288 0 0 0-1.33 1.61l7.959 4.511zm20.719-7.01c-.53-.504-1.09-.977-1.675-1.416l-19.044 10.79-9.09-5.151a18.748 18.748 0 0 0-.934 1.838l10.024 5.677 20.719-11.738zM52.124 44.328l-10.756-6.095a18.52 18.52 0 0 0-.516 2.073l11.272 6.387 23.419-13.271a19.693 19.693 0 0 0-1.248-1.659L52.124 44.328zm26.565-.561c0 10.379-8.542 18.797-19.08 18.797-10.537 0-19.081-8.418-19.081-18.797 0-.424.017-.841.045-1.256l11.553 6.548 24.47-13.869a18.537 18.537 0 0 1 2.093 8.577"/></symbol><symbol viewBox="0 0 210 89" id="pay-yandex" xmlns="http://www.w3.org/2000/svg"><path d="M139.751 37.328l11.538-6.387c1.567-.867 2.469.03 2.469.907v13.807c0 1.86-2.178 2.683-3.729 3.275l-8.314 3.174c-1.662.635-1.744 1.188-1.521 1.555.139.228.644.314 1.677.019l11.64-3.322c1.233-.352 2.212-1.454 2.212-2.434v-8.516l1.915-.05c.772-.02 1.565.94 1.562 1.713l-.051 13.555c-.003.824-1.091 1.562-1.915 1.562h-18.241c-1.202 0-2.373-1.519-2.368-2.721l.051-12.036c.01-2.32.898-2.895 3.075-4.101zm7.8 1.817c-.573.825-.543 1.761.068 2.091.61.33 1.57-.072 2.143-.897s.543-1.761-.068-2.091c-.611-.33-1.57.072-2.143.897z" fill="#DB7D43"/><path d="M66.656 44.773h-1.394c-2.189 0-4.312-1.597-4.312-5.59 0-4.16 1.99-5.857 4.014-5.857h1.692v11.447zm2.189-13.577h-3.782c-3.715 0-6.867 2.828-6.867 8.32 0 3.294 1.527 5.723 4.246 6.921l-5.075 9.184c-.166.3 0 .532.265.532h2.355c.199 0 .332-.067.398-.232l4.611-9.019h1.659v9.019c0 .099.1.232.231.232h2.057c.199 0 .265-.1.265-.265V31.529c.002-.233-.131-.333-.363-.333z" fill="#D14A43"/><path d="M81.314 39.47h-2.057c-.166 0-.266.133-.266.232v6.356h-3.815v-6.356c0-.166-.065-.232-.231-.232h-2.058c-.165 0-.265.1-.265.232v16.173c0 .166.067.266.231.266h2.091c.133 0 .231-.1.231-.265v-7.72h3.815v7.72c0 .166.1.266.266.266h2.057c.166 0 .232-.133.232-.265V39.702a.225.225 0 0 0-.231-.232zm46.961 15.606l-.266-1.131c-.032-.1-.066-.133-.165-.133-.166 0-1.062.365-2.355.365-2.521 0-3.749-2.428-3.749-6.289 0-3.395 1.029-6.755 2.754-6.755.465 0 1.029.133 1.923.966.1.1.166.133.266.133s.199-.067.299-.233l.896-1.464a.547.547 0 0 0 .099-.301c0-.133-.133-.233-.332-.332-1.36-.699-2.289-.832-3.085-.832-3.118 0-5.54 3.726-5.54 9.549 0 5.026 2.323 7.92 5.64 7.92 1.394 0 2.886-.664 3.484-1.098.131-.099.163-.232.131-.365zm-14.418-8.086l3.98-7.288c.067-.1.033-.232-.1-.232h-1.957c-.564 0-.764.199-.961.632l-2.987 6.223c-.164.366-.331.599-.497.699v-7.321c0-.133-.066-.232-.199-.232h-2.156c-.099 0-.199.1-.199.233V55.91c0 .1.067.232.199.232h2.156c.133 0 .199-.099.199-.232v-8.353c.1.067.166.166.232.3l3.782 7.786c.199.4.498.499.93.499h2.123c.133 0 .166-.133.099-.232l-4.644-8.92zm-22.591 7.054h-4.81c1.692-2.895 2.355-6.155 2.587-10.149.066-.865.099-1.765.099-2.33h2.124v12.479zm3.583 0h-.399c-.498 0-.63-.199-.63-.598V39.702c0-.166-.066-.232-.199-.232h-6.634c-.166 0-.265.1-.265.233V40.9c0 4.026-.233 9.218-2.355 13.145h-.73c-.199 0-.266.101-.266.267v4.859c0 .167.133.232.232.232h1.593c.364 0 .497-.266.497-.499v-2.762h7.1v3.029c0 .132.098.232.231.232h1.693c.198 0 .397-.166.397-.499v-4.592c-.001-.167-.1-.267-.265-.268zm6.402-7.752c-.764 0-1.957.133-1.957.133s0-.499.067-1.032c.297-2.828.995-4.259 2.156-4.259 1.062 0 1.725 1.464 1.891 4.027.033.532.033 1.132.033 1.132h-2.19zm.365-7.221c-3.582 0-5.175 4.525-5.175 9.45 0 5.025 2.255 8.019 5.573 8.019 1.625 0 3.052-.632 3.782-1.098.133-.067.166-.166.133-.299l-.265-1.132c-.033-.133-.1-.199-.266-.199-.131 0-1.094.365-2.455.365-2.554 0-3.748-2.229-3.748-5.157v-.788s1.293.155 2.057.155h4.844V46.99c-.001-5.157-1.827-7.919-4.48-7.919z" fill="#201600"/></symbol><symbol viewBox="0 0 486.1 486.1" id="phone" xmlns="http://www.w3.org/2000/svg"><path d="M414.8 71.25C368.9 25.35 307.9.05 243 .05s-125.9 25.3-171.8 71.2S0 178.15 0 243.05s25.3 125.9 71.2 171.8 106.9 71.2 171.8 71.2c37.7 0 72.1-7 99.4-20.1 25.9-12.5 44.7-30.4 53-50.3 9.9-23.9 4.3-48.8-15.3-68.4l-.7-.7c.3-.4.7-.7 1-1 14-14.7 14-34-.2-48.2l-34.6-34.6c-6.8-7-15-10.8-23.7-10.8s-17 3.7-24 10.7l-18 18c-.9-.5-1.7-.9-2.6-1.3-2.2-1.1-4.2-2.1-5.9-3.2-18.3-11.6-34.9-26.8-50.8-46.3-7-8.8-11.8-16.3-15.4-23.7 4.5-4.2 8.7-8.5 12.8-12.7 1.7-1.8 3.5-3.5 5.3-5.3 14.7-14.7 14.7-33.7 0-48.4l-17.1-17.1c-2-2-3.9-3.9-5.8-5.9-3.8-3.9-7.7-7.9-11.9-11.8-6.8-6.7-14.9-10.2-23.5-10.2s-16.8 3.5-23.8 10.2l-.2.2-21.5 21.5c-8.6 8.6-13.6 19.2-14.6 31.4-1.5 19 4 36.6 8.3 48.1 10.3 27.8 25.7 53.6 48.6 81.2 27.8 33.2 61.3 59.5 99.6 78 14.7 7 34.4 15.2 56.6 16.7 1.4.1 2.8.1 4.2.1 15.5 0 28.6-5.6 38.8-16.7l.4-.4c.3-.4.7-.8 1.1-1.2l.6.6c12.8 12.8 16.3 27.4 10.1 42.3-11.5 27.3-56.2 55.3-130.2 55.3-120.8 0-219-98.2-219-219s98.2-219 219-219 219 98.2 219 219c0 19.9-2.7 39.5-7.9 58.4-1.8 6.4 2 13 8.4 14.8s13-2 14.8-8.4c5.8-21 8.8-42.8 8.8-64.8-.1-64.9-25.4-125.9-71.3-171.8zm-71.6 277.9c-5.7 6.1-12.1 8.8-21 8.8-.9 0-1.8 0-2.7-.1-18-1.2-35-8.3-47.7-14.4-35.1-17-65.9-41.1-91.5-71.7-21.1-25.4-35.2-48.9-44.6-74.1-5.6-15.2-7.7-26.8-6.9-37.8.6-6.5 3-11.8 7.7-16.4l21.5-21.4c1.7-1.6 4.3-3.5 7.1-3.5s5.2 1.8 6.7 3.4l.3.3c3.8 3.5 7.4 7.2 11.2 11.1 2 2 4 4.1 6 6.1l17.1 17.1c5.3 5.3 5.3 9.2 0 14.5l-5.4 5.4c-5.3 5.3-10.2 10.4-15.6 15.2-.2.1-.3.3-.5.5-7.5 7.5-4.9 15.3-4.1 17.9.1.3.2.5.3.8 4.6 11.1 11 21.5 20.8 33.9l.1.1c17.6 21.7 36.1 38.5 56.6 51.5 2.7 1.7 5.4 3.1 8 4.4 2.2 1.1 4.2 2.1 5.9 3.2.3.2.7.4 1.1.6 2.6 1.3 5.2 1.9 7.8 1.9 4.4 0 8.5-1.8 12-5.4l21.5-21.5c1.7-1.7 4.2-3.7 7-3.7 2.6 0 5 1.9 6.5 3.5l.2.2 34.6 34.6c4.9 4.9 4.9 9.4-.2 14.7l-.1.1c-2.3 2.5-4.8 4.9-7.5 7.5-4 3.9-8.2 8-12.2 12.7z"/></symbol><symbol viewBox="0 0 455 455" id="plus" xmlns="http://www.w3.org/2000/svg"><path d="M455 212.5H242.5V0h-30v212.5H0v30h212.5V455h30V242.5H455z"/></symbol><symbol viewBox="0 0 286.042 286.042" id="plus-bold" xmlns="http://www.w3.org/2000/svg"><path d="M270.151 127.13H158.912V15.891C158.912 7.119 151.761 0 143.021 0c-8.772 0-15.891 7.119-15.891 15.891V127.13H15.891C7.119 127.13 0 134.249 0 143.021c0 8.74 7.119 15.891 15.891 15.891H127.13v111.239c0 8.74 7.119 15.891 15.891 15.891 8.74 0 15.891-7.151 15.891-15.891V158.912h111.239c8.74 0 15.891-7.151 15.891-15.891 0-8.772-7.151-15.891-15.891-15.891z" fill="#010002"/></symbol><symbol viewBox="0 0 483.083 483.083" id="search" xmlns="http://www.w3.org/2000/svg"><path d="M332.74 315.35c30.883-33.433 50.15-78.2 50.15-127.5C382.89 84.433 298.74 0 195.04 0S7.19 84.433 7.19 187.85 91.34 375.7 195.04 375.7c42.217 0 81.033-13.883 112.483-37.4l139.683 139.683c3.4 3.4 7.65 5.1 11.9 5.1s8.783-1.7 11.9-5.1c6.517-6.517 6.517-17.283 0-24.083L332.74 315.35zM41.19 187.85C41.19 103.133 110.04 34 195.04 34c84.717 0 153.85 68.85 153.85 153.85S280.04 341.7 195.04 341.7 41.19 272.567 41.19 187.85z"/></symbol><symbol viewBox="0 0 189.473 189.473" id="telegram" xmlns="http://www.w3.org/2000/svg"><path d="M152.531 179.476c-1.48 0-2.95-.438-4.211-1.293l-47.641-32.316-25.552 18.386a7.502 7.502 0 0 1-11.633-4.174l-12.83-48.622L4.821 93.928a7.501 7.501 0 0 1-.094-13.975l174.312-69.36a7.503 7.503 0 0 1 10.282 8.408L159.898 173.38a7.499 7.499 0 0 1-7.367 6.096zm-47.669-48.897l42.437 28.785L170.193 39.24l-82.687 79.566 17.156 11.638c.069.043.135.089.2.135zm-35.327-6.401l5.682 21.53 12.242-8.809-16.03-10.874a7.478 7.478 0 0 1-1.894-1.847zM28.136 86.782l31.478 12.035a7.5 7.5 0 0 1 4.573 5.092l3.992 15.129a7.504 7.504 0 0 1 2.259-4.624L149.227 38.6 28.136 86.782z"/></symbol><symbol viewBox="0 0 482.9 482.9" id="user" xmlns="http://www.w3.org/2000/svg"><path d="M239.7 260.2h3.2c29.3-.5 53-10.8 70.5-30.5 38.5-43.4 32.1-117.8 31.4-124.9-2.5-53.3-27.7-78.8-48.5-90.7C280.8 5.2 262.7.4 242.5 0H240.8c-11.1 0-32.9 1.8-53.8 13.7-21 11.9-46.6 37.4-49.1 91.1-.7 7.1-7.1 81.5 31.4 124.9 17.4 19.7 41.1 30 70.4 30.5zm-75.1-152.9c0-.3.1-.6.1-.8 3.3-71.7 54.2-79.4 76-79.4H241.9c27 .6 72.9 11.6 76 79.4 0 .3 0 .6.1.8.1.7 7.1 68.7-24.7 104.5-12.6 14.2-29.4 21.2-51.5 21.4h-1c-22-.2-38.9-7.2-51.4-21.4-31.7-35.6-24.9-103.9-24.8-104.5z"/><path d="M446.8 383.6v-.3c0-.8-.1-1.6-.1-2.5-.6-19.8-1.9-66.1-45.3-80.9-.3-.1-.7-.2-1-.3-45.1-11.5-82.6-37.5-83-37.8-6.1-4.3-14.5-2.8-18.8 3.3-4.3 6.1-2.8 14.5 3.3 18.8 1.7 1.2 41.5 28.9 91.3 41.7 23.3 8.3 25.9 33.2 26.6 56 0 .9 0 1.7.1 2.5.1 9-.5 22.9-2.1 30.9-16.2 9.2-79.7 41-176.3 41-96.2 0-160.1-31.9-176.4-41.1-1.6-8-2.3-21.9-2.1-30.9 0-.8.1-1.6.1-2.5.7-22.8 3.3-47.7 26.6-56 49.8-12.8 89.6-40.6 91.3-41.7 6.1-4.3 7.6-12.7 3.3-18.8-4.3-6.1-12.7-7.6-18.8-3.3-.4.3-37.7 26.3-83 37.8-.4.1-.7.2-1 .3-43.4 14.9-44.7 61.2-45.3 80.9 0 .9 0 1.7-.1 2.5v.3c-.1 5.2-.2 31.9 5.1 45.3 1 2.6 2.8 4.8 5.2 6.3 3 2 74.9 47.8 195.2 47.8s192.2-45.9 195.2-47.8c2.3-1.5 4.2-3.7 5.2-6.3 5-13.3 4.9-40 4.8-45.2z"/></symbol><symbol viewBox="391.257 621 32.441 45" id="user-women" xmlns="http://www.w3.org/2000/svg"><defs><style>.scls-1{fill:#fff}</style></defs><g id="sGroup_30" data-name="Group 30" transform="translate(202.257 549)"><path id="sPath_259" data-name="Path 259" class="scls-1" d="M101.921 32.24a4.448 4.448 0 0 0-3.389-3.481c-.03-.009.256.063-6.8-1.685v-.239h5.192a1.943 1.943 0 0 0 1.941-1.941v-9.9a2.425 2.425 0 0 0 0-1.12v-3.617a.659.659 0 0 0-1.319 0v1.892a3.423 3.423 0 0 0-1.174-.43 1.72 1.72 0 0 0-1.449-1.325 2.149 2.149 0 0 1-1.7-1.307A1.13 1.13 0 0 0 91.3 8.91a12.063 12.063 0 0 1-9.724 5c-.414 0-.695-.02-.792-.024a1.744 1.744 0 0 0-1.845 1.74v1.515a8.942 8.942 0 0 0 2.756 6.44 8.829 8.829 0 0 0 1.9 1.385v.548H78.43a.623.623 0 0 1-.622-.622V10.079a8.755 8.755 0 0 1 8.646-8.76h.046a11.235 11.235 0 0 1 4.985 1.226c.845.466 1.367.1 2.2.1 2.037 0 3.669 2.094 3.865 3.978v.561a.672.672 0 0 0 .66.659.659.659 0 0 0 .659-.66c0-.117 0-.576-.01-.683-.265-2.622-2.5-5.174-5.178-5.174-1.045 0-1.208.265-1.565.068A12.653 12.653 0 0 0 86.507 0a10.071 10.071 0 0 0-10.018 10.079v14.814a1.943 1.943 0 0 0 1.941 1.941h5.17v.239l-6.771 1.678-.027.007-.495.146-.044.015a4.375 4.375 0 0 0-2.851 3.321c-2.007 10.08-1.922 9.649-1.927 9.684A2.472 2.472 0 0 0 74.158 45h7.129a.659.659 0 1 0 0-1.319h-2.481v-6.217a.659.659 0 0 0-1.319 0v6.218h-3.33c-.876 0-1.384-.282-1.393-1.2 0-.449-.021-.011 1.94-9.982a3.09 3.09 0 0 1 2-2.335l.457-.135 3.888-.964c4.325 5.1 4.069 4.826 4.319 5.069a3.2 3.2 0 0 0 4.859-.283l4.073-4.785 3.873.96a3.2 3.2 0 0 1 2.455 2.47c1.945 9.885 1.944 9.532 1.94 9.982-.007.9-.494 1.2-1.393 1.2h-3.306v-6.215a.659.659 0 1 0-1.319 0v6.218H84.364a.659.659 0 1 0 0 1.319h16.811a2.423 2.423 0 0 0 2.711-2.51c.006-.755-.039-.391-1.965-10.251zm-5.5-19.161a1.654 1.654 0 0 1 1.131.975v.755a1.654 1.654 0 0 1-1.131.975zm0 4.179v-.122a3.415 3.415 0 0 0 1.131-.423v8.18a.623.623 0 0 1-.622.622h-5.196v-.51a8.728 8.728 0 0 0 4.684-7.748zM82.6 22.628a7.618 7.618 0 0 1-2.347-5.486c.039-1.435-.1-1.609.134-1.825a.416.416 0 0 1 .313-.117 13.243 13.243 0 0 0 11.482-5.269 3.383 3.383 0 0 0 2.572 1.77.4.4 0 0 1 .345.391v5.166a7.4 7.4 0 0 1-12.499 5.37zM89.223 33a1.908 1.908 0 0 1-3.123-.01l-1.376-1.624h5.886zm2.51-2.948H83.61l-1.133-1.342 1.94-.481a.667.667 0 0 0 .5-.646v-2.04a8.732 8.732 0 0 0 5.5.019 11.8 11.8 0 0 0 .037 2.245.659.659 0 0 0 .464.422l1.953.484z" transform="translate(117.555 71.999)"/></g></symbol></svg>