<?xml version="1.0" standalone="no"?>
<!DOCTYPE svg PUBLIC "-//W3C//DTD SVG 20010904//EN"
 "http://www.w3.org/TR/2001/REC-SVG-20010904/DTD/svg10.dtd">
<svg version="1.0" xmlns="http://www.w3.org/2000/svg"
 width="152.000000pt" height="152.000000pt" viewBox="0 0 152.000000 152.000000"
 preserveAspectRatio="xMidYMid meet">
<metadata>
Created by potrace 1.11, written by Peter Selinger 2001-2013
</metadata>
<g transform="translate(0.000000,152.000000) scale(0.100000,-0.100000)"
fill="#000000" stroke="none">
<path d="M587 1499 c-288 -69 -505 -292 -571 -584 -19 -87 -15 -254 8 -343 71
-269 277 -475 546 -548 87 -23 259 -27 347 -7 217 49 403 186 507 374 28 52
63 136 70 171 20 100 24 130 24 197 2 345 -231 646 -570 737 -93 25 -263 26
-361 3z"/>
</g>
</svg>
