<?xml version="1.0" standalone="no"?>
<!DOCTYPE svg PUBLIC "-//W3C//DTD SVG 20010904//EN"
 "http://www.w3.org/TR/2001/REC-SVG-20010904/DTD/svg10.dtd">
<svg version="1.0" xmlns="http://www.w3.org/2000/svg"
 width="114.000000pt" height="114.000000pt" viewBox="0 0 114.000000 114.000000"
 preserveAspectRatio="xMidYMid meet">
<metadata>
Created by potrace 1.11, written by Peter Selinger 2001-2013
</metadata>
<g transform="translate(0.000000,114.000000) scale(0.100000,-0.100000)"
fill="#000000" stroke="none">
<path d="M0 570 l0 -570 570 0 570 0 0 570 0 570 -570 0 -570 0 0 -570z m520
190 c23 -39 46 -73 50 -75 5 -3 27 29 49 70 l42 75 64 0 c36 0 65 -3 65 -7 0
-9 -18 -41 -97 -175 l-52 -86 76 -124 c41 -67 78 -129 80 -135 4 -10 -13 -13
-65 -13 l-71 0 -49 80 c-55 90 -50 90 -106 -12 l-38 -68 -64 0 c-35 0 -64 4
-64 9 0 5 34 68 75 139 l76 130 -76 123 c-41 68 -75 127 -75 131 0 4 31 8 69
8 l69 0 42 -70z"/>
</g>
</svg>
